<svg width="313" height="278" viewBox="0 0 313 278" fill="none" xmlns="http://www.w3.org/2000/svg">
<path d="M0.516868 69.899L265.572 92.9663L285.821 168.787L17.7651 134.666L0.516868 69.899Z" fill="#FFA500"/>
<path d="M266.322 92.7646L24.0199 157.905L57.9873 187.126L44.5312 234.709L286.833 169.569L266.322 92.7646Z" fill="black"/>
<path d="M116.249 173.902C117.522 178.671 117.685 182.958 116.737 186.766C115.789 190.574 113.98 193.759 111.31 196.322C108.653 198.881 105.386 200.681 101.508 201.724C97.6165 202.77 93.8809 202.845 90.3013 201.947C86.7217 201.05 83.5746 199.197 80.86 196.389C78.1557 193.563 76.1687 189.773 74.8992 185.019C73.6258 180.251 73.4559 175.965 74.3896 172.161C75.3373 168.353 77.1394 165.169 79.796 162.611C82.4526 160.052 85.7268 158.249 89.6185 157.203C93.4961 156.161 97.2228 156.081 100.799 156.964C104.389 157.844 107.543 159.695 110.261 162.517C112.979 165.339 114.975 169.134 116.249 173.902ZM105.546 176.78C104.793 173.958 103.754 171.682 102.431 169.952C101.121 168.217 99.5855 167.05 97.8234 166.45C96.0753 165.847 94.1579 165.826 92.071 166.387C89.9983 166.944 88.3483 167.924 87.1211 169.328C85.894 170.731 85.1385 172.514 84.8546 174.677C84.5849 176.836 84.8268 179.326 85.5802 182.147C86.3337 184.969 87.3652 187.247 88.6747 188.981C89.9983 190.712 91.5412 191.877 93.3033 192.477C95.0655 193.076 96.9829 193.098 99.0557 192.54C101.143 191.979 102.793 190.999 104.006 189.599C105.233 188.196 105.981 186.415 106.251 184.256C106.535 182.093 106.3 179.601 105.546 176.78ZM125.441 194.655L113.867 151.319L143.436 143.37L145.708 151.876L126.609 157.011L128.982 165.898L146.199 161.269L148.476 169.797L131.259 174.425L135.91 191.84L125.441 194.655ZM157.574 186.016L146 142.68L175.569 134.731L177.841 143.237L158.742 148.372L161.115 157.259L178.332 152.631L180.609 161.158L163.393 165.787L168.043 183.202L157.574 186.016ZM189.707 177.377L178.134 134.042L208.337 125.922L210.609 134.428L190.875 139.733L193.248 148.621L211.438 143.73L213.715 152.258L195.526 157.148L197.905 166.056L217.638 160.751L219.91 169.258L189.707 177.377ZM223.76 168.223L212.186 124.887L230.08 120.076C233.323 119.204 236.278 119.037 238.946 119.575C241.623 120.095 243.894 121.269 245.757 123.096C247.617 124.91 248.942 127.298 249.733 130.26C250.536 133.265 250.562 135.994 249.812 138.449C249.058 140.889 247.623 142.984 245.505 144.732C243.384 146.467 240.674 147.777 237.374 148.664L226.059 151.706L223.855 143.454L233.225 140.935C234.804 140.51 236.068 139.951 237.016 139.258C237.975 138.547 238.616 137.694 238.94 136.7C239.26 135.691 239.241 134.517 238.883 133.177C238.525 131.837 237.954 130.803 237.171 130.077C236.384 129.336 235.396 128.891 234.207 128.741C233.015 128.578 231.636 128.707 230.071 129.128L224.911 130.515L234.229 165.408L223.76 168.223ZM242.857 141.861L258.933 158.767L247.512 161.837L231.647 144.874L242.857 141.861Z" fill="white"/>
<path d="M0.516968 69.8989L245.287 4.0947L228.715 41.0101L262.647 69.0985L17.8769 134.903L0.516968 69.8989Z" fill="black"/>
<path d="M41.9674 79.1237L49.3322 106.701L43.6792 108.221L28.4591 95.2537L28.2841 95.3007L32.5347 111.217L25.8723 113.008L18.5074 85.4307L24.2412 83.8893L39.333 96.8621L39.5618 96.8006L35.3184 80.9113L41.9674 79.1237ZM60.5824 104.095C58.4199 104.676 56.4396 104.752 54.6416 104.321C52.8502 103.879 51.3205 102.977 50.0527 101.615C48.7915 100.241 47.8672 98.4548 47.2798 96.2555C46.7093 94.1189 46.6323 92.1383 47.0491 90.3137C47.4634 88.48 48.3191 86.9126 49.6161 85.6114C50.9108 84.3011 52.599 83.3662 54.6807 82.8066C56.1523 82.4109 57.5594 82.278 58.9019 82.4078C60.2445 82.5375 61.4799 82.9318 62.6079 83.5907C63.736 84.2496 64.723 85.1725 65.5689 86.3594C66.4125 87.5374 67.0608 88.9747 67.5139 90.6714L67.9526 92.3142L49.9842 97.1448L48.9629 93.3206L60.8073 90.1364C60.6113 89.4386 60.2787 88.8593 59.8094 88.3985C59.3401 87.9378 58.7821 87.6308 58.1353 87.4776C57.495 87.3129 56.8115 87.3283 56.0847 87.5237C55.3489 87.7215 54.7338 88.0649 54.2392 88.5538C53.7423 89.0338 53.3988 89.6024 53.2089 90.2596C53.0166 90.9079 53.0061 91.589 53.1776 92.303L54.2168 96.1945C54.4422 97.0384 54.806 97.7344 55.3082 98.2825C55.808 98.8216 56.4098 99.1842 57.1134 99.3703C57.8171 99.5563 58.5907 99.536 59.4341 99.3092C60.0174 99.1524 60.5252 98.9293 60.9576 98.6399C61.39 98.3504 61.7348 98.0028 61.9918 97.5969C62.2489 97.1911 62.4015 96.7363 62.4498 96.2326L68.5398 94.783C68.6506 96.2061 68.414 97.5349 67.8301 98.7695C67.2527 99.9927 66.3519 101.067 65.1277 101.993C63.9011 102.909 62.386 103.61 60.5824 104.095ZM74.5851 99.9121L63.6777 80.6764L70.2863 78.8998L76.611 91.4008L76.786 91.3538L76.2354 77.3004L82.6826 75.5671L89.2647 87.8979L89.4397 87.8509L88.6317 73.9678L95.2403 72.1911L95.3666 94.3251L88.3273 96.2176L81.8785 85.0344L81.6497 85.0959L81.6379 98.016L74.5851 99.9121ZM115.445 59.3698L122.094 57.5823L126.845 75.3703C127.394 77.426 127.383 79.3484 126.813 81.1374C126.24 82.9175 125.19 84.4601 123.663 85.7654C122.134 87.0617 120.212 88.021 117.897 88.6434C115.555 89.273 113.399 89.4101 111.428 89.0546C109.456 88.6901 107.782 87.8796 106.408 86.623C105.031 85.3575 104.068 83.6968 103.519 81.6411L98.7689 63.8531L105.431 62.062L110.027 79.2709C110.281 80.2225 110.714 81.0153 111.326 81.6494C111.947 82.2812 112.69 82.7067 113.557 82.9259C114.423 83.1452 115.354 83.121 116.35 82.8532C117.346 82.5855 118.16 82.1405 118.792 81.5184C119.434 80.8938 119.865 80.1523 120.088 79.2938C120.311 78.4353 120.295 77.5303 120.041 76.5788L115.445 59.3698ZM145.14 65.5448L139.14 67.3311C138.962 66.9171 138.689 66.5814 138.323 66.324C137.953 66.0577 137.519 65.8906 137.02 65.8227C136.528 65.7434 135.99 65.7821 135.407 65.9389C134.644 66.144 134.034 66.4715 133.577 66.9214C133.129 67.369 132.979 67.8519 133.127 68.3701C133.226 68.7765 133.481 69.0832 133.892 69.2902C134.313 69.4947 134.982 69.5698 135.9 69.5153L140.086 69.1983C142.255 69.0385 143.964 69.2813 145.214 69.9268C146.472 70.5699 147.307 71.6443 147.719 73.15C148.089 74.5708 147.997 75.9185 147.443 77.1931C146.898 78.4654 145.985 79.5862 144.705 80.5557C143.423 81.5162 141.858 82.2449 140.009 82.7419C137.057 83.5355 134.567 83.5556 132.538 82.802C130.517 82.0371 129.111 80.6638 128.322 78.6821L134.78 76.7728C135.125 77.4883 135.651 77.9627 136.357 78.1961C137.064 78.4295 137.884 78.4207 138.817 78.1698C139.661 77.9431 140.305 77.6014 140.751 77.1449C141.196 76.6884 141.354 76.1986 141.224 75.6755C141.09 75.2111 140.784 74.894 140.306 74.7243C139.826 74.5456 139.133 74.4912 138.229 74.5612L134.438 74.8442C132.265 75.0245 130.535 74.7437 129.251 74.0018C127.963 73.2511 127.113 72.0845 126.7 70.5021C126.322 69.1221 126.375 67.8427 126.858 66.664C127.339 65.4763 128.197 64.4376 129.43 63.5478C130.664 62.6581 132.214 61.9623 134.081 61.4605C136.88 60.7079 139.245 60.7025 141.174 61.4442C143.101 62.177 144.423 63.5439 145.14 65.5448ZM159.79 77.4241C157.627 78.0055 155.647 78.0809 153.849 77.6502C152.057 77.2081 150.528 76.306 149.26 74.9439C147.999 73.5703 147.074 71.7838 146.487 69.5845C145.916 67.4479 145.84 65.4673 146.256 63.6427C146.671 61.809 147.526 60.2416 148.823 58.9404C150.118 57.6302 151.806 56.6952 153.888 56.1356C155.359 55.74 156.767 55.607 158.109 55.7368C159.452 55.8665 160.687 56.2608 161.815 56.9197C162.943 57.5786 163.93 58.5015 164.776 59.6885C165.62 60.8664 166.268 62.3037 166.721 64.0004L167.16 65.6432L149.191 70.4738L148.17 66.6496L160.014 63.4654C159.819 62.7676 159.486 62.1883 159.017 61.7276C158.547 61.2668 157.989 60.9598 157.343 60.8066C156.702 60.6419 156.019 60.6573 155.292 60.8527C154.556 61.0505 153.941 61.3939 153.446 61.8829C152.95 62.3628 152.606 62.9314 152.416 63.5886C152.224 64.2369 152.213 64.918 152.385 65.632L153.424 69.5235C153.649 70.3674 154.013 71.0634 154.515 71.6115C155.015 72.1506 155.617 72.5132 156.321 72.6993C157.024 72.8853 157.798 72.865 158.641 72.6382C159.225 72.4814 159.732 72.2583 160.165 71.9689C160.597 71.6794 160.942 71.3318 161.199 70.9259C161.456 70.5201 161.609 70.0653 161.657 69.5616L167.747 68.112C167.858 69.5351 167.621 70.8639 167.037 72.0985C166.46 73.3217 165.559 74.3961 164.335 75.3218C163.108 76.2385 161.593 76.9393 159.79 77.4241ZM170.152 74.2199L164.628 53.5369L171.021 51.8181L172.028 55.5884L172.243 55.5305C172.256 54.0647 172.6 52.8851 173.275 51.9916C173.947 51.0891 174.849 50.4859 175.98 50.182C176.285 50.1 176.605 50.038 176.94 49.996C177.272 49.9451 177.589 49.9226 177.888 49.9286L179.417 55.6515C179.074 55.6282 178.638 55.6539 178.11 55.7285C177.591 55.8008 177.134 55.89 176.739 55.9961C175.958 56.206 175.301 56.5704 174.766 57.0894C174.238 57.597 173.877 58.2087 173.684 58.9246C173.497 59.6291 173.514 60.3943 173.734 61.2202L176.733 72.4504L170.152 74.2199ZM197.609 51.4388L191.609 53.2251C191.431 52.8111 191.159 52.4754 190.792 52.2181C190.423 51.9517 189.989 51.7846 189.49 51.7167C188.997 51.6374 188.459 51.6761 187.876 51.8329C187.113 52.038 186.504 52.3655 186.047 52.8155C185.599 53.263 185.449 53.7459 185.597 54.2642C185.696 54.6705 185.951 54.9772 186.362 55.1842C186.782 55.3888 187.451 55.4638 188.37 55.4094L192.555 55.0924C194.724 54.9325 196.434 55.1753 197.683 55.8208C198.942 56.4639 199.777 57.5383 200.189 59.044C200.558 60.4648 200.466 61.8125 199.912 63.0872C199.367 64.3594 198.455 65.4803 197.175 66.4497C195.893 67.4102 194.327 68.139 192.479 68.6359C189.527 69.4295 187.037 69.4496 185.008 68.696C182.986 67.9311 181.581 66.5578 180.792 64.5762L187.25 62.6669C187.595 63.3823 188.12 63.8568 188.827 64.0901C189.534 64.3235 190.354 64.3147 191.287 64.0638C192.13 63.8371 192.775 63.4954 193.22 63.0389C193.666 62.5824 193.823 62.0926 193.693 61.5695C193.56 61.1051 193.254 60.7881 192.776 60.6183C192.295 60.4396 191.603 60.3853 190.698 60.4553L186.908 60.7383C184.734 60.9185 183.005 60.6377 181.72 59.8959C180.433 59.1451 179.583 57.9785 179.17 56.3961C178.792 55.0161 178.844 53.7367 179.328 52.558C179.809 51.3703 180.666 50.3316 181.9 49.4418C183.134 48.5521 184.684 47.8563 186.55 47.3546C189.35 46.6019 191.714 46.5965 193.643 47.3383C195.57 48.0711 196.892 49.4379 197.609 51.4388Z" fill="white"/>
<path d="M75.6294 244.836C75.2449 244.245 74.8111 243.74 74.328 243.32C73.8496 242.892 73.3245 242.559 72.7526 242.321C72.1871 242.081 71.5806 241.945 70.9332 241.913C70.2858 241.881 69.6063 241.96 68.8949 242.152C67.7284 242.465 66.7482 243.052 65.9541 243.911C65.1601 244.771 64.6378 245.863 64.3872 247.188C64.1365 248.513 64.2389 250.029 64.6944 251.734C65.15 253.44 65.8196 254.803 66.7034 255.823C67.5872 256.843 68.5967 257.523 69.7319 257.864C70.8671 258.205 72.0435 258.212 73.2613 257.884C74.3893 257.581 75.3186 257.073 76.049 256.362C76.7841 255.642 77.2738 254.775 77.5182 253.761C77.7673 252.738 77.7309 251.624 77.4089 250.419L78.1807 250.376L72.2585 251.969L71.6934 249.853L79.1923 247.837L79.7574 249.953C80.1906 251.575 80.2213 253.079 79.8493 254.464C79.4837 255.847 78.7834 257.032 77.7485 258.018C76.7182 258.996 75.4211 259.695 73.8572 260.116C72.1139 260.584 70.4725 260.586 68.933 260.12C67.3999 259.652 66.0627 258.761 64.9215 257.446C63.7867 256.129 62.9419 254.432 62.3871 252.354C61.971 250.796 61.8051 249.339 61.8895 247.983C61.9786 246.619 62.2904 245.395 62.8249 244.309C63.3594 243.224 64.0897 242.306 65.0159 241.555C65.942 240.805 67.0364 240.26 68.299 239.92C69.3373 239.641 70.347 239.538 71.3283 239.611C72.3142 239.676 73.2358 239.899 74.0933 240.28C74.9554 240.653 75.7289 241.17 76.4138 241.831C77.097 242.486 77.6559 243.267 78.0905 244.174L75.6294 244.836ZM90.5184 255.678C89.0955 256.06 87.7842 256.076 86.5845 255.725C85.3895 255.366 84.3616 254.694 83.5009 253.709C82.6449 252.716 82.0148 251.462 81.6107 249.949C81.2066 248.436 81.126 247.028 81.3689 245.726C81.6166 244.415 82.1507 243.303 82.9712 242.388C83.7963 241.465 84.8755 240.824 86.2086 240.466C86.9777 240.259 87.7715 240.183 88.5899 240.238C89.4083 240.293 90.2022 240.526 90.9716 240.938C91.7393 241.343 92.4317 241.968 93.0487 242.812C93.6658 243.657 94.1584 244.768 94.5266 246.147L94.7834 247.109L83.4005 250.169L82.8765 248.207L91.9521 245.767C91.7295 244.933 91.3642 244.234 90.8562 243.67C90.3547 243.104 89.7489 242.713 89.039 242.499C88.3355 242.282 87.5736 242.284 86.7532 242.505C85.8495 242.748 85.1275 243.183 84.5872 243.809C84.0516 244.427 83.7026 245.14 83.5402 245.946C83.3777 246.753 83.4052 247.563 83.6227 248.377L83.9721 249.685C84.27 250.801 84.7149 251.695 85.3066 252.368C85.9031 253.032 86.6014 253.473 87.4015 253.691C88.1998 253.902 89.0573 253.885 89.9738 253.639C90.5699 253.478 91.086 253.25 91.5222 252.954C91.9631 252.65 92.3144 252.281 92.5761 251.846C92.8362 251.405 92.9938 250.902 93.0491 250.338L95.4055 250.364C95.3734 251.17 95.1603 251.928 94.7662 252.639C94.3704 253.343 93.8139 253.96 93.0966 254.49C92.3776 255.013 91.5182 255.409 90.5184 255.678ZM101.125 236.662L101.639 238.586L93.9861 240.643L93.4724 238.719L101.125 236.662ZM94.7576 234.58L97.0264 233.97L100.787 248.051C100.958 248.693 101.18 249.148 101.451 249.419C101.727 249.682 102.027 249.828 102.351 249.857C102.68 249.879 103.011 249.845 103.344 249.755C103.594 249.688 103.796 249.62 103.949 249.552C104.101 249.476 104.222 249.416 104.313 249.371L105.319 251.286C105.181 251.385 104.981 251.501 104.721 251.633C104.463 251.771 104.122 251.897 103.699 252.01C103.058 252.183 102.393 252.214 101.704 252.103C101.022 251.991 100.403 251.708 99.8487 251.252C99.3007 250.794 98.9119 250.136 98.6824 249.277L94.7576 234.58Z" fill="black"/>
<path d="M117.999 254.173L116.355 248.018L125.51 235.132C126.116 234.276 126.621 233.492 127.024 232.779C127.435 232.052 127.708 231.347 127.844 230.662C127.99 229.973 127.964 229.26 127.767 228.521C127.55 227.711 127.191 227.065 126.689 226.585C126.197 226.101 125.608 225.787 124.92 225.642C124.23 225.486 123.491 225.515 122.701 225.727C121.911 225.939 121.257 226.286 120.736 226.766C120.227 227.244 119.89 227.835 119.726 228.539C119.562 229.243 119.598 230.036 119.834 230.918L111.712 233.102C111.12 230.886 111.108 228.844 111.675 226.976C112.242 225.108 113.319 223.499 114.904 222.149C116.489 220.799 118.501 219.796 120.942 219.14C123.465 218.462 125.757 218.28 127.82 218.594C129.889 218.896 131.621 219.64 133.015 220.826C134.42 222.01 135.383 223.582 135.907 225.541C136.23 226.752 136.301 228.025 136.119 229.36C135.934 230.686 135.384 232.247 134.468 234.043C133.552 235.84 132.161 238.061 130.296 240.707L128 243.963L128.049 244.148L140.355 240.84L142.18 247.672L117.999 254.173ZM158.6 244.182C155.736 244.941 153.088 244.943 150.655 244.19C148.223 243.436 146.113 241.975 144.324 239.805C142.536 237.636 141.185 234.822 140.272 231.361C139.356 227.891 139.134 224.795 139.605 222.073C140.086 219.349 141.194 217.077 142.929 215.258C144.674 213.437 146.977 212.141 149.838 211.372C152.699 210.603 155.34 210.574 157.762 211.287C160.18 211.989 162.277 213.399 164.052 215.517C165.826 217.635 167.17 220.424 168.083 223.885C169.012 227.362 169.243 230.489 168.775 233.265C168.307 236.041 167.208 238.365 165.477 240.238C163.753 242.098 161.461 243.412 158.6 244.182ZM156.742 237.226C158.219 236.829 159.223 235.734 159.756 233.941C160.296 232.136 160.118 229.578 159.223 226.267C158.645 224.102 157.957 222.39 157.159 221.131C156.361 219.872 155.495 219.016 154.561 218.564C153.624 218.101 152.663 218.002 151.679 218.266C150.202 218.663 149.197 219.736 148.664 221.485C148.131 223.234 148.287 225.732 149.132 228.979C149.711 231.188 150.406 232.947 151.218 234.258C152.027 235.558 152.901 236.444 153.841 236.917C154.79 237.388 155.758 237.49 156.742 237.226ZM191.386 228.11L190.942 226.448C190.586 225.114 190.545 223.806 190.817 222.523C191.101 221.237 191.704 220.102 192.628 219.117C193.552 218.132 194.809 217.425 196.398 216.998C198.029 216.56 199.488 216.53 200.777 216.91C202.075 217.286 203.162 217.962 204.038 218.936C204.914 219.91 205.532 221.074 205.894 222.428L206.338 224.09C206.694 225.424 206.731 226.734 206.447 228.019C206.175 229.302 205.571 230.438 204.637 231.426C203.703 232.414 202.431 233.124 200.82 233.557C199.21 233.99 197.76 234.011 196.469 233.622C195.178 233.232 194.094 232.55 193.219 231.576C192.353 230.599 191.742 229.444 191.386 228.11ZM196.295 225.009L196.739 226.671C196.896 227.256 197.194 227.797 197.634 228.294C198.083 228.778 198.712 228.912 199.522 228.694C200.373 228.465 200.858 228.038 200.977 227.412C201.105 226.784 201.088 226.162 200.923 225.546L200.479 223.884C200.315 223.268 200.028 222.708 199.618 222.202C199.208 221.697 198.562 221.562 197.681 221.799C196.87 222.017 196.393 222.453 196.249 223.108C196.116 223.76 196.131 224.393 196.295 225.009ZM170.08 214.507L169.636 212.845C169.274 211.491 169.235 210.171 169.518 208.885C169.811 207.597 170.422 206.465 171.348 205.49C172.275 204.515 173.523 203.817 175.092 203.395C176.722 202.957 178.182 202.927 179.47 203.307C180.769 203.683 181.856 204.359 182.731 205.333C183.607 206.307 184.226 207.471 184.587 208.825L185.031 210.487C185.393 211.842 185.431 213.156 185.145 214.432C184.869 215.705 184.262 216.825 183.322 217.792C182.382 218.759 181.108 219.459 179.497 219.892C177.887 220.325 176.438 220.352 175.15 219.972C173.862 219.593 172.781 218.921 171.908 217.958C171.045 216.991 170.436 215.841 170.08 214.507ZM175.05 211.389L175.494 213.051C175.659 213.667 175.958 214.213 176.394 214.69C176.829 215.167 177.436 215.3 178.215 215.091C179.066 214.862 179.551 214.435 179.67 213.809C179.799 213.181 179.781 212.559 179.617 211.943L179.173 210.281C179.009 209.665 178.721 209.105 178.312 208.599C177.902 208.094 177.256 207.959 176.374 208.196C175.564 208.414 175.1 208.858 174.982 209.527C174.871 210.184 174.894 210.804 175.05 211.389ZM179.09 237.749L192.331 200.41L196.7 199.235L183.458 236.575L179.09 237.749Z" fill="black"/>
<path d="M223.327 216.537L218.657 217.793L214.974 204.004L219.739 202.723C221.107 202.355 222.356 202.315 223.486 202.603C224.62 202.885 225.588 203.469 226.392 204.355C227.196 205.24 227.789 206.399 228.172 207.831C228.555 209.267 228.618 210.573 228.36 211.749C228.106 212.924 227.553 213.922 226.7 214.743C225.851 215.563 224.727 216.161 223.327 216.537ZM220.576 214.96L222.629 214.408C223.589 214.15 224.343 213.76 224.891 213.237C225.438 212.71 225.779 212.053 225.915 211.266C226.05 210.475 225.977 209.551 225.695 208.497C225.413 207.442 225.018 206.61 224.509 206.001C223.999 205.388 223.382 204.993 222.657 204.818C221.935 204.636 221.108 204.671 220.175 204.922L218.048 205.494L220.576 214.96ZM229.849 200.005L233.532 213.794L231.035 214.465L227.353 200.676L229.849 200.005ZM239.702 201.419C239.482 200.848 239.095 200.461 238.541 200.259C237.991 200.055 237.346 200.053 236.606 200.252C236.086 200.392 235.66 200.591 235.33 200.848C234.999 201.105 234.771 201.395 234.646 201.717C234.52 202.04 234.502 202.374 234.589 202.721C234.666 203.008 234.798 203.24 234.984 203.416C235.175 203.591 235.405 203.721 235.673 203.808C235.94 203.89 236.226 203.943 236.531 203.967C236.835 203.991 237.138 203.999 237.438 203.99L238.817 203.966C239.37 203.947 239.914 203.976 240.449 204.054C240.989 204.13 241.491 204.274 241.956 204.486C242.426 204.696 242.832 204.993 243.175 205.377C243.518 205.762 243.77 206.252 243.929 206.849C244.145 207.657 244.128 208.424 243.88 209.15C243.63 209.871 243.161 210.51 242.473 211.065C241.788 211.615 240.893 212.038 239.79 212.335C238.717 212.623 237.742 212.707 236.864 212.587C235.99 212.466 235.246 212.147 234.631 211.629C234.022 211.11 233.576 210.397 233.296 209.491L235.752 208.831C235.916 209.301 236.171 209.661 236.516 209.91C236.862 210.159 237.264 210.305 237.723 210.35C238.187 210.394 238.679 210.346 239.199 210.206C239.742 210.06 240.196 209.851 240.561 209.58C240.93 209.303 241.192 208.987 241.347 208.633C241.501 208.274 241.528 207.896 241.427 207.5C241.327 207.142 241.142 206.874 240.873 206.696C240.603 206.514 240.261 206.394 239.847 206.337C239.436 206.275 238.967 206.247 238.44 206.254L236.764 206.271C235.551 206.285 234.535 206.084 233.718 205.669C232.903 205.248 232.364 204.544 232.1 203.556C231.883 202.744 231.913 201.973 232.19 201.245C232.471 200.515 232.948 199.879 233.621 199.337C234.292 198.791 235.111 198.388 236.075 198.129C237.053 197.866 237.956 197.806 238.783 197.95C239.613 198.087 240.319 198.4 240.901 198.888C241.483 199.372 241.884 200 242.104 200.773L239.702 201.419ZM255.192 198.178L252.676 198.855C252.493 198.461 252.263 198.131 251.985 197.864C251.706 197.593 251.393 197.383 251.046 197.236C250.699 197.089 250.326 197.009 249.929 196.995C249.534 196.976 249.126 197.023 248.704 197.137C247.955 197.338 247.341 197.705 246.863 198.238C246.384 198.766 246.077 199.435 245.942 200.246C245.807 201.052 245.877 201.974 246.154 203.011C246.436 204.066 246.837 204.91 247.357 205.545C247.881 206.174 248.479 206.595 249.152 206.809C249.828 207.017 250.538 207.021 251.283 206.82C251.696 206.709 252.067 206.552 252.397 206.348C252.731 206.138 253.012 205.886 253.242 205.594C253.476 205.3 253.65 204.969 253.763 204.602C253.881 204.234 253.924 203.837 253.893 203.413L256.413 202.749C256.494 203.43 256.454 204.1 256.294 204.759C256.137 205.417 255.867 206.033 255.482 206.608C255.096 207.178 254.599 207.678 253.992 208.105C253.384 208.529 252.669 208.851 251.848 209.071C250.637 209.397 249.481 209.407 248.38 209.102C247.279 208.796 246.313 208.188 245.483 207.276C244.652 206.363 244.04 205.167 243.644 203.686C243.247 202.2 243.184 200.855 243.454 199.652C243.723 198.445 244.258 197.432 245.059 196.616C245.861 195.799 246.863 195.229 248.065 194.906C248.832 194.699 249.574 194.615 250.291 194.653C251.008 194.692 251.681 194.85 252.308 195.129C252.934 195.403 253.494 195.796 253.986 196.308C254.482 196.815 254.884 197.438 255.192 198.178ZM269.039 196.858C269.436 198.344 269.498 199.691 269.224 200.9C268.954 202.103 268.416 203.114 267.611 203.932C266.809 204.749 265.805 205.319 264.598 205.644C263.391 205.968 262.235 205.978 261.13 205.674C260.028 205.364 259.058 204.757 258.22 203.851C257.385 202.94 256.77 201.744 256.374 200.263C255.977 198.778 255.914 197.433 256.184 196.23C256.458 195.021 256.995 194.008 257.796 193.192C258.602 192.374 259.608 191.802 260.815 191.478C262.022 191.153 263.176 191.144 264.277 191.449C265.382 191.753 266.353 192.361 267.187 193.272C268.025 194.177 268.643 195.373 269.039 196.858ZM266.529 197.533C266.25 196.487 265.851 195.649 265.331 195.019C264.815 194.383 264.221 193.959 263.548 193.745C262.875 193.527 262.163 193.518 261.414 193.72C260.665 193.921 260.053 194.285 259.578 194.812C259.102 195.335 258.797 196.001 258.662 196.812C258.531 197.617 258.605 198.543 258.884 199.588C259.164 200.634 259.561 201.475 260.077 202.111C260.597 202.741 261.193 203.165 261.867 203.383C262.539 203.597 263.25 203.603 264 203.402C264.749 203.2 265.361 202.838 265.837 202.316C266.312 201.789 266.615 201.123 266.746 200.318C266.881 199.507 266.809 198.579 266.529 197.533ZM276.893 187.357L279.39 186.686L281.796 195.695C282.059 196.682 282.058 197.613 281.792 198.488C281.53 199.362 281.036 200.123 280.309 200.77C279.582 201.413 278.657 201.886 277.536 202.187C276.41 202.49 275.371 202.545 274.421 202.353C273.469 202.157 272.662 201.746 272 201.121C271.338 200.496 270.875 199.689 270.611 198.702L268.205 189.693L270.702 189.022L273.052 197.822C273.205 198.396 273.468 198.874 273.839 199.255C274.214 199.636 274.667 199.891 275.198 200.023C275.727 200.15 276.308 200.129 276.94 199.959C277.573 199.789 278.087 199.516 278.482 199.14C278.88 198.759 279.145 198.31 279.276 197.794C279.408 197.277 279.397 196.732 279.243 196.157L276.893 187.357ZM292.076 183.276L295.759 197.064L293.538 197.661L284.535 190.015L284.421 190.046L286.929 199.438L284.432 200.109L280.75 186.321L282.984 185.72L291.982 193.375L292.103 193.342L289.593 183.943L292.076 183.276ZM293.397 185.165L292.837 183.071L303.834 180.115L304.393 182.209L300.133 183.354L303.256 195.049L300.78 195.714L297.657 184.02L293.397 185.165Z" fill="black"/>
</svg>
