<svg width="232" height="143" viewBox="0 0 232 143" fill="none" xmlns="http://www.w3.org/2000/svg">
<g opacity="0.1">
<path d="M219.361 119.637L218.964 87.0029C218.929 84.8359 218.195 82.7381 216.87 81.0228C215.545 79.3075 213.701 78.0668 211.613 77.4859L122.367 53.1689C120.273 52.6104 118.054 52.7441 116.042 53.5503C114.031 54.3565 112.334 55.7918 111.205 57.6419L94.3077 85.5632C94.0671 85.9589 93.8831 86.3862 93.7609 86.8329L91.1321 96.4812C90.1118 100.226 89.9773 104.157 90.7394 107.962C91.5015 111.768 93.1391 115.344 95.5226 118.407L83.6928 161.824C83.3441 163.103 83.5181 164.469 84.1763 165.62C84.8345 166.771 85.923 167.614 87.2025 167.962L183.685 194.251C184.965 194.6 186.33 194.426 187.481 193.767C188.633 193.109 189.475 192.021 189.824 190.741L201.654 147.324C205.261 145.893 208.487 143.643 211.074 140.75C213.661 137.857 215.539 134.401 216.56 130.656L219.188 121.008C219.31 120.561 219.368 120.1 219.361 119.637ZM129.725 106.997C129.046 109.485 127.737 111.756 125.924 113.591C124.111 115.426 121.856 116.762 119.375 117.471C116.895 118.18 114.274 118.237 111.766 117.637C109.257 117.037 106.945 115.8 105.054 114.046C104.79 113.694 104.479 113.378 104.131 113.108C102.443 111.243 101.252 108.983 100.667 106.537C100.081 104.091 100.12 101.537 100.78 99.11L102.095 94.2859L131.04 102.172L129.725 106.997ZM168.318 117.512C167.272 121.35 164.745 124.616 161.291 126.591C157.837 128.565 153.741 129.087 149.903 128.041C146.064 126.995 142.799 124.468 140.824 121.014C138.849 117.56 138.328 113.464 139.373 109.625L140.688 104.801L169.633 112.688L168.318 117.512ZM206.911 128.027C206.248 130.454 204.985 132.675 203.239 134.486C201.492 136.297 199.318 137.639 196.917 138.39C196.485 138.447 196.062 138.561 195.659 138.727C193.139 139.28 190.519 139.175 188.053 138.42C185.586 137.665 183.355 136.287 181.577 134.418C179.798 132.55 178.531 130.254 177.899 127.753C177.266 125.252 177.29 122.63 177.966 120.141L179.281 115.317L208.226 123.203L206.911 128.027Z" fill="#717171"/>
<path d="M16.4875 76.5258L15.2023 61.4406C15.1207 60.4385 15.3653 59.4369 15.8998 58.5853C16.4343 57.7337 17.2298 57.0779 18.1678 56.7157L58.2794 41.4715C59.2211 41.1194 60.2515 41.0813 61.2167 41.363C62.1818 41.6446 63.03 42.231 63.6345 43.0344L72.6926 55.1655C72.8215 55.3373 72.9257 55.5264 73.0022 55.7271L74.6502 60.0635C75.2898 61.7465 75.5288 63.5553 75.3483 65.3467C75.1677 67.1381 74.5725 68.8628 73.6099 70.3843L81.0259 89.8981C81.2445 90.4731 81.2256 91.1114 80.9735 91.6726C80.7215 92.2337 80.2568 92.6717 79.6817 92.8903L36.3178 109.37C35.7428 109.589 35.1044 109.57 34.5433 109.318C33.9821 109.066 33.5441 108.601 33.3256 108.026L25.9095 88.5125C24.1793 88.0143 22.5889 87.1202 21.2641 85.901C19.9394 84.6817 18.9167 83.1707 18.2771 81.4877L16.6291 77.1513C16.5529 76.9504 16.5053 76.7399 16.4875 76.5258ZM57.3047 66.6555C57.7301 67.7739 58.4368 68.7637 59.3565 69.5292C60.2761 70.2948 61.3776 70.8103 62.5546 71.0259C63.7317 71.2414 64.9444 71.1499 66.0757 70.76C67.2069 70.3701 68.2186 69.6951 69.0128 68.8001C69.119 68.6254 69.2482 68.4657 69.3969 68.3254C70.092 67.3882 70.5403 66.2913 70.7005 65.1356C70.8607 63.9799 70.7278 62.8024 70.3138 61.7115L69.4898 59.5433L56.4806 64.4873L57.3047 66.6555ZM39.9591 73.2476C40.6147 74.9727 41.9288 76.3668 43.6122 77.123C45.2956 77.8793 47.2106 77.9358 48.9357 77.2802C50.6608 76.6246 52.0548 75.3105 52.8111 73.627C53.5673 71.9436 53.6239 70.0287 52.9683 68.3036L52.1442 66.1354L39.1351 71.0794L39.9591 73.2476ZM22.6135 79.8397C23.029 80.9303 23.7121 81.8988 24.5999 82.6563C25.4878 83.4137 26.5519 83.9357 27.6944 84.1741C27.8965 84.1813 28.0968 84.2147 28.2903 84.2733C29.4786 84.4154 30.6835 84.2487 31.7885 83.7892C32.8935 83.3297 33.8613 82.593 34.5985 81.6502C35.3356 80.7074 35.8172 79.5905 35.9966 78.4073C36.176 77.224 36.0472 76.0145 35.6227 74.8956L34.7987 72.7274L21.7895 77.6715L22.6135 79.8397Z" fill="#717171"/>
<path d="M124.202 14.6578L121.961 6.8125C121.81 6.29205 121.495 5.83432 121.063 5.50765C120.631 5.18097 120.104 5.0029 119.562 5L96.4375 5C95.8957 5.0029 95.3693 5.18097 94.9371 5.50765C94.5048 5.83432 94.1898 6.29205 94.0391 6.8125L91.7984 14.6578C91.7664 14.7691 91.7501 14.8842 91.75 15V17.5C91.75 18.4703 91.9759 19.4272 92.4098 20.2951C92.8438 21.1629 93.4738 21.9178 94.25 22.5V33.75C94.25 34.0815 94.3817 34.3995 94.6161 34.6339C94.8505 34.8683 95.1685 35 95.5 35H120.5C120.832 35 121.149 34.8683 121.384 34.6339C121.618 34.3995 121.75 34.0815 121.75 33.75V22.5C122.526 21.9178 123.156 21.1629 123.59 20.2951C124.024 19.4272 124.25 18.4703 124.25 17.5V15C124.25 14.8842 124.234 14.7691 124.202 14.6578ZM101.75 17.5C101.75 18.1449 101.583 18.7788 101.267 19.3405C100.95 19.9022 100.494 20.3727 99.942 20.7067C99.3903 21.0406 98.7619 21.2267 98.1173 21.2468C97.4728 21.267 96.834 21.1207 96.2625 20.8219C96.1755 20.7542 96.0799 20.6985 95.9781 20.6562C95.4486 20.3172 95.0127 19.8505 94.7108 19.2989C94.4088 18.7474 94.2503 18.1288 94.25 17.5V16.25H101.75V17.5ZM111.75 17.5C111.75 18.4946 111.355 19.4484 110.652 20.1517C109.948 20.8549 108.995 21.25 108 21.25C107.005 21.25 106.052 20.8549 105.348 20.1517C104.645 19.4484 104.25 18.4946 104.25 17.5V16.25H111.75V17.5ZM121.75 17.5C121.749 18.1289 121.591 18.7476 121.289 19.2992C120.986 19.8507 120.55 20.3174 120.02 20.6563C119.92 20.6986 119.825 20.7537 119.739 20.8203C119.168 21.1194 118.529 21.2661 117.884 21.2461C117.24 21.2262 116.611 21.0404 116.059 20.7066C115.507 20.3728 115.051 19.9023 114.734 19.3406C114.417 18.7789 114.25 18.1449 114.25 17.5V16.25L121.75 16.25V17.5Z" fill="#717171"/>
</g>
</svg>
