<svg width="233" height="124" viewBox="0 0 233 124" fill="none" xmlns="http://www.w3.org/2000/svg">
<g opacity="0.2">
<path d="M110.269 66.8292C110.581 67.0184 110.932 67.1368 111.295 67.1759C111.658 67.215 112.026 67.174 112.372 67.0558C112.718 66.9375 113.033 66.7448 113.297 66.4913C113.56 66.2378 113.765 65.9296 113.896 65.5885C117.217 57.0189 117.817 47.6338 115.614 38.711C115.139 36.8002 114.541 34.9221 113.824 33.0883L141.844 -34.8295C142.765 -37.0368 142.86 -39.502 142.113 -41.774C141.366 -44.046 139.826 -45.9731 137.774 -47.2028L126.967 -53.74C124.925 -54.9861 122.503 -55.4556 120.144 -55.0626C117.785 -54.6697 115.646 -53.4406 114.118 -51.6001L66.9689 4.76203C65.0132 4.97414 63.0733 5.31201 61.1611 5.77355C52.238 7.96147 44.2056 12.845 38.1564 19.7599C37.9152 20.0346 37.7372 20.3588 37.635 20.7097C37.5327 21.0606 37.5086 21.4296 37.5644 21.7909C37.6202 22.1521 37.7545 22.4967 37.9579 22.8004C38.1613 23.1041 38.4288 23.3595 38.7416 23.5486L110.269 66.8292ZM93.2531 4.5408L100.573 -7.55986C100.903 -8.13956 101.347 -8.64719 101.877 -9.05284C102.407 -9.45848 103.012 -9.75392 103.658 -9.92175C104.304 -10.0896 104.977 -10.1264 105.638 -10.03C106.298 -9.93368 106.932 -9.70608 107.503 -9.36067C108.074 -9.01525 108.571 -8.55902 108.963 -8.01884C109.354 -7.47868 109.634 -6.86551 109.786 -6.21549C109.937 -5.56546 109.956 -4.89175 109.843 -4.23404C109.73 -3.57634 109.486 -2.94796 109.126 -2.38594L101.807 9.71472C101.104 10.8128 99.9993 11.5927 98.7293 11.8882C97.4593 12.1836 96.1241 11.9713 95.0084 11.2965C93.8927 10.6216 93.0848 9.53761 92.7569 8.27559C92.429 7.01359 92.6071 5.6734 93.2531 4.5408ZM29.9327 33.3641C30.0637 33.022 30.2683 32.7129 30.5319 32.4586C30.7956 32.2043 31.112 32.011 31.4586 31.8925C31.8053 31.774 32.1737 31.7332 32.5379 31.7728C32.902 31.8125 33.2531 31.9317 33.5661 32.122L105.089 75.3843C105.402 75.5732 105.671 75.8288 105.875 76.1329C106.079 76.437 106.214 76.7823 106.27 77.1444C106.326 77.5064 106.302 77.8763 106.199 78.2279C106.096 78.5795 105.917 78.9042 105.675 79.1791C98.713 87.1146 89.1802 92.3468 78.7473 93.959C68.3144 95.5712 57.6469 93.4605 48.6141 87.9967C39.5813 82.533 32.7593 74.0647 29.3437 64.0758C25.928 54.087 26.1365 43.2146 29.9327 33.3641Z" fill="#9747FF"/>
<path d="M189.46 99.0181C189.39 99.1728 189.288 99.3104 189.159 99.4211C189.031 99.5319 188.88 99.6132 188.717 99.6592C188.554 99.7053 188.382 99.715 188.215 99.6877C188.048 99.6603 187.888 99.5966 187.748 99.5011C184.221 97.1062 181.517 93.6824 180.005 89.6958C179.683 88.8413 179.415 87.9668 179.206 87.0779L150.602 68.5443C149.669 67.9447 148.982 67.0291 148.668 65.9648C148.354 64.9006 148.434 63.759 148.893 62.7487L151.294 57.4039C151.744 56.3899 152.545 55.5721 153.549 55.1C154.553 54.6278 155.694 54.5329 156.762 54.8326L189.619 63.9114C190.422 63.4767 191.251 63.0941 192.103 62.766C196.085 61.2481 200.439 60.994 204.571 62.038C204.735 62.0793 204.889 62.1561 205.02 62.263C205.152 62.37 205.258 62.5045 205.332 62.6571C205.406 62.8097 205.446 62.9766 205.448 63.1462C205.451 63.3157 205.416 63.4837 205.347 63.6384L189.46 99.0181ZM179.529 70.7578L173.545 68.0695C173.266 67.9354 172.963 67.8586 172.653 67.8435C172.344 67.8284 172.035 67.8754 171.744 67.9817C171.453 68.0879 171.187 68.2514 170.96 68.4623C170.734 68.6732 170.551 68.9273 170.425 69.2098C170.298 69.4922 170.229 69.7971 170.222 70.1066C170.214 70.4161 170.269 70.724 170.383 71.0119C170.497 71.2999 170.667 71.5622 170.883 71.7834C171.1 72.0045 171.359 72.1801 171.644 72.2997L177.629 74.9881C178.187 75.2217 178.814 75.2282 179.377 75.0061C179.939 74.784 180.393 74.3509 180.641 73.7991C180.888 73.2473 180.911 72.6206 180.703 72.0524C180.496 71.4843 180.074 71.0198 179.529 70.7578ZM211.297 65.0618C211.157 64.9658 210.997 64.9017 210.829 64.8742C210.662 64.8467 210.49 64.8564 210.327 64.9026C210.163 64.9487 210.012 65.0303 209.883 65.1414C209.755 65.2526 209.652 65.3906 209.583 65.5458L193.693 100.917C193.623 101.072 193.588 101.241 193.59 101.411C193.592 101.58 193.632 101.748 193.706 101.901C193.78 102.054 193.887 102.188 194.019 102.296C194.151 102.403 194.304 102.479 194.469 102.52C199.219 103.713 204.237 103.197 208.644 101.061C213.051 98.9252 216.566 95.3067 218.573 90.8395C220.58 86.3723 220.95 81.3413 219.62 76.6282C218.29 71.9151 215.343 67.8204 211.297 65.0618Z" fill="#9747FF"/>
<path d="M131.455 110.19C131.52 110.255 131.598 110.305 131.684 110.336C131.77 110.367 131.861 110.379 131.952 110.371C132.043 110.363 132.132 110.335 132.211 110.289C132.29 110.244 132.358 110.181 132.41 110.106C133.728 108.224 134.435 105.982 134.433 103.684C134.432 103.192 134.399 102.7 134.335 102.212L145.196 87.3997C145.551 86.9189 145.722 86.3262 145.676 85.73C145.631 85.1338 145.372 84.574 144.947 84.1528L142.715 81.92C142.294 81.4955 141.734 81.2368 141.138 81.1912C140.541 81.1456 139.949 81.3161 139.468 81.6716L124.654 92.5357C124.166 92.4703 123.675 92.4363 123.183 92.4341C120.887 92.4319 118.645 93.1373 116.763 94.4544C116.688 94.5067 116.626 94.5747 116.58 94.6538C116.534 94.7329 116.506 94.821 116.498 94.912C116.49 95.0031 116.502 95.0948 116.533 95.1806C116.564 95.2665 116.614 95.3445 116.679 95.4091L131.455 110.19ZM131.047 94.0528L133.547 91.5528C133.662 91.4319 133.8 91.3352 133.953 91.2684C134.106 91.2016 134.271 91.166 134.438 91.1639C134.605 91.1618 134.77 91.1931 134.925 91.2559C135.079 91.3188 135.22 91.4119 135.338 91.5299C135.456 91.6479 135.549 91.7883 135.612 91.9429C135.674 92.0974 135.706 92.263 135.704 92.4298C135.701 92.5966 135.666 92.7614 135.599 92.9142C135.532 93.0671 135.436 93.2051 135.315 93.32L132.815 95.82C132.578 96.0446 132.264 96.1679 131.938 96.1637C131.612 96.1595 131.3 96.0282 131.07 95.7977C130.839 95.5672 130.708 95.2558 130.704 94.9298C130.7 94.6039 130.823 94.2892 131.047 94.0528ZM113.954 97.2653C114.006 97.1901 114.074 97.1273 114.153 97.0813C114.233 97.0354 114.321 97.0074 114.412 96.9993C114.503 96.9913 114.595 97.0034 114.681 97.0348C114.767 97.0662 114.845 97.1161 114.91 97.181L129.687 111.958C129.751 112.022 129.801 112.1 129.833 112.186C129.864 112.272 129.876 112.364 129.868 112.455C129.86 112.547 129.832 112.635 129.786 112.714C129.74 112.793 129.677 112.862 129.602 112.914C127.438 114.424 124.811 115.124 122.182 114.892C119.553 114.66 117.09 113.51 115.224 111.644C113.357 109.778 112.207 107.314 111.975 104.685C111.743 102.057 112.444 99.4297 113.954 97.2653Z" fill="#9747FF"/>
</g>
</svg>
