<svg width="233" height="125" viewBox="0 0 233 125" fill="none" xmlns="http://www.w3.org/2000/svg">
<g opacity="0.2">
<path d="M40.0371 30.6959C40.5989 30.8601 41.2063 31.0002 41.8304 31.1298C41.3378 31.5343 40.8649 31.9404 40.4435 32.3466C38.0501 34.6141 36.1288 37.3327 34.7902 40.3457C33.4517 43.3588 32.7223 46.6068 32.6442 49.9029C32.566 53.199 33.1406 56.478 34.3349 59.5511C35.5292 62.6242 37.3195 65.4307 39.6028 67.8091C41.8861 70.1874 44.6173 72.0907 47.6392 73.4092C50.6611 74.7277 53.9139 75.4355 57.2104 75.4918C60.5069 75.5481 63.782 74.9517 66.8472 73.7371C69.9123 72.5225 72.7069 70.7136 75.07 68.4146C75.4914 68.0083 75.922 67.5612 76.3375 67.0791C76.4384 67.6979 76.5575 68.3123 76.7069 68.9191C78.292 75.3573 82.3697 80.9021 88.0429 84.3337C93.7162 87.7654 100.52 88.8028 106.959 87.2177C113.397 85.6326 118.941 81.5549 122.373 75.8816C125.805 70.2083 126.842 63.4042 125.257 56.966C125.117 56.3956 124.967 55.7887 124.73 55.1648C125.319 55.3867 125.911 55.595 126.473 55.7592C129.633 56.6984 132.948 57.0031 136.227 56.6559C139.505 56.3086 142.683 55.3163 145.576 53.736C148.47 52.1557 151.023 50.0187 153.087 47.4479C155.151 44.8772 156.687 41.9235 157.605 38.7569C158.523 35.5903 158.806 32.2734 158.437 28.9971C158.068 25.7208 157.054 22.5499 155.455 19.6668C153.855 16.7838 151.701 14.2456 149.117 12.1983C146.533 10.1511 143.569 8.63531 140.396 7.73818C139.835 7.57398 139.227 7.43386 138.603 7.3043C139.096 6.89981 139.569 6.49373 139.99 6.08747C142.383 3.81998 144.305 1.10145 145.643 -1.91161C146.982 -4.92466 147.711 -8.17273 147.789 -11.4688C147.867 -14.7649 147.293 -18.0439 146.099 -21.117C144.904 -24.1901 143.114 -26.9966 140.831 -29.375C138.547 -31.7533 135.816 -33.6566 132.794 -34.9751C129.772 -36.2936 126.52 -37.0014 123.223 -37.0577C119.926 -37.114 116.651 -36.5176 113.586 -35.303C110.521 -34.0884 107.727 -32.2795 105.363 -29.9805C104.942 -29.5742 104.511 -29.1271 104.096 -28.645C103.995 -29.2638 103.876 -29.8782 103.734 -30.4547C102.149 -36.8929 98.0713 -42.4376 92.398 -45.8693C86.7247 -49.3009 79.9205 -50.3383 73.4824 -48.7532C67.0442 -47.1682 61.4994 -43.0905 58.0678 -37.4172C54.6361 -31.7439 53.5987 -24.9398 55.1838 -18.5016C55.3243 -17.9311 55.504 -17.3317 55.7035 -16.7307C55.1146 -16.9526 54.5226 -17.1609 53.9609 -17.3251C49.7592 -18.55 45.3087 -18.6444 41.0589 -17.5987C38.9242 -17.0701 36.8677 -16.2652 34.9414 -15.2043C30.6098 -12.8195 27.0827 -9.20381 24.8061 -4.81441C22.5295 -0.425013 21.6056 4.54092 22.1514 9.45538C22.6972 14.3698 24.688 19.0121 27.8722 22.795C31.0564 26.578 35.2909 29.3318 40.0401 30.7081L40.0371 30.6959ZM86.0331 2.22448C89.394 1.39704 92.9247 1.58479 96.1788 2.76397C99.4329 3.94315 102.264 6.0608 104.315 8.84915C106.365 11.6375 107.543 14.9713 107.699 18.4289C107.855 21.8866 106.982 25.3128 105.191 28.2744C103.399 31.2359 100.77 33.5997 97.635 35.0669C94.5002 36.5341 91.0007 37.0388 87.5791 36.5171C84.1574 35.9955 80.9673 34.4709 78.4122 32.1361C75.857 29.8014 74.0516 26.7615 73.2241 23.4006C72.1146 18.8939 72.8408 14.131 75.2429 10.1597C77.6451 6.18843 81.5264 3.33403 86.0331 2.22448Z" fill="#FF0033"/>
<path d="M206.737 66.7081C206.566 66.9189 206.371 67.1325 206.167 67.3465C206.462 67.371 206.749 67.4013 207.017 67.4452C208.529 67.6795 209.979 68.2105 211.284 69.0075C212.59 69.8045 213.724 70.8519 214.623 72.0893C215.522 73.3267 216.168 74.7297 216.522 76.2175C216.877 77.7053 216.934 79.2486 216.689 80.7584C216.445 82.2683 215.904 83.7149 215.099 85.0149C214.293 86.315 213.238 87.4429 211.995 88.3336C210.751 89.2244 209.344 89.8604 207.854 90.205C206.364 90.5497 204.82 90.5962 203.312 90.3419C203.044 90.2979 202.762 90.2408 202.476 90.1664C202.601 90.4292 202.717 90.695 202.82 90.9661C203.913 93.8413 203.819 97.0328 202.559 99.8385C201.298 102.644 198.975 104.834 196.1 105.927C193.224 107.02 190.033 106.926 187.227 105.665C184.421 104.405 182.231 102.081 181.138 99.2062C181.042 98.9514 180.939 98.6804 180.865 98.3797C180.698 98.6197 180.527 98.8552 180.356 99.0661C179.398 100.258 178.213 101.248 176.87 101.98C175.527 102.712 174.053 103.172 172.531 103.331C171.01 103.491 169.473 103.349 168.007 102.912C166.541 102.475 165.176 101.753 163.991 100.786C162.805 99.8196 161.823 98.6282 161.1 97.2804C160.377 95.9327 159.927 94.4552 159.778 92.9331C159.628 91.4109 159.781 89.8742 160.227 88.4114C160.674 86.9486 161.405 85.5885 162.379 84.4095C162.551 84.1987 162.745 83.9851 162.949 83.771C162.655 83.7466 162.367 83.7163 162.099 83.6723C160.588 83.438 159.138 82.9071 157.832 82.11C156.527 81.313 155.392 80.2657 154.493 79.0283C153.594 77.7909 152.949 76.3879 152.594 74.9C152.24 73.4122 152.183 71.869 152.427 70.3591C152.672 68.8493 153.212 67.4027 154.018 66.1026C154.824 64.8025 155.878 63.6747 157.122 62.7839C158.365 61.8932 159.772 61.2572 161.262 60.9125C162.753 60.5679 164.296 60.5214 165.804 60.7757C166.072 60.8196 166.355 60.8768 166.64 60.9512C166.516 60.6884 166.399 60.4225 166.301 60.165C165.208 57.2898 165.303 54.0983 166.563 51.2926C167.824 48.4868 170.147 46.2967 173.022 45.204C175.897 44.1113 179.089 44.2055 181.895 45.466C184.7 46.7264 186.89 49.0498 187.983 51.925C188.08 52.1797 188.169 52.4559 188.252 52.7379C188.418 52.4979 188.589 52.2623 188.76 52.0515C190.041 50.4761 191.715 49.2665 193.612 48.545C194.566 48.1838 195.564 47.9487 196.579 47.8457C198.861 47.6137 201.16 48.0636 203.187 49.1386C205.213 50.2136 206.875 51.8653 207.963 53.8849C209.05 55.9045 209.514 58.2013 209.297 60.4848C209.079 62.7682 208.189 64.9359 206.739 66.7135L206.737 66.7081ZM181.674 67.9701C180.173 68.5405 178.875 69.5432 177.944 70.8513C177.013 72.1594 176.491 73.7143 176.444 75.3192C176.396 76.9241 176.826 78.5071 177.678 79.8679C178.53 81.2287 179.767 82.3062 181.232 82.9641C182.696 83.6221 184.323 83.8309 185.906 83.5643C187.49 83.2977 188.958 82.5675 190.127 81.4662C191.295 80.3648 192.111 78.9417 192.47 77.3769C192.83 75.812 192.717 74.1757 192.147 72.6748C191.382 70.6621 189.849 69.0357 187.885 68.1534C185.921 67.2711 183.687 67.2052 181.674 67.9701Z" fill="#FF0033"/>
<path d="M119.567 104.222C119.693 104.295 119.832 104.365 119.976 104.434C119.832 104.503 119.693 104.573 119.567 104.647C118.85 105.054 118.221 105.599 117.716 106.25C117.211 106.902 116.84 107.647 116.624 108.442C116.408 109.238 116.352 110.068 116.458 110.885C116.564 111.703 116.831 112.491 117.243 113.205C117.655 113.919 118.205 114.544 118.859 115.045C119.514 115.545 120.261 115.912 121.058 116.122C121.855 116.333 122.686 116.384 123.502 116.272C124.319 116.161 125.106 115.888 125.817 115.472C125.943 115.398 126.074 115.315 126.204 115.223C126.192 115.379 126.184 115.536 126.184 115.692C126.184 117.349 126.842 118.939 128.014 120.111C129.187 121.283 130.776 121.942 132.434 121.942C134.091 121.942 135.681 121.283 136.853 120.111C138.025 118.939 138.684 117.349 138.684 115.692C138.684 115.545 138.684 115.389 138.664 115.223C138.793 115.312 138.924 115.398 139.051 115.472C139.762 115.888 140.549 116.161 141.365 116.272C142.182 116.384 143.013 116.333 143.809 116.122C144.606 115.912 145.354 115.545 146.008 115.045C146.663 114.544 147.212 113.919 147.625 113.205C148.037 112.491 148.304 111.703 148.41 110.885C148.516 110.068 148.46 109.238 148.244 108.442C148.028 107.647 147.656 106.902 147.151 106.25C146.646 105.599 146.018 105.054 145.301 104.647C145.174 104.573 145.035 104.503 144.892 104.434C145.035 104.365 145.174 104.295 145.301 104.222C146.018 103.814 146.646 103.269 147.151 102.618C147.656 101.966 148.028 101.221 148.244 100.426C148.46 99.6305 148.516 98.8001 148.41 97.9828C148.304 97.1654 148.037 96.3771 147.625 95.6633C147.212 94.9495 146.663 94.3242 146.008 93.8235C145.354 93.3229 144.606 92.9566 143.809 92.746C143.013 92.5353 142.182 92.4843 141.365 92.596C140.549 92.7076 139.762 92.9797 139.051 93.3966C138.924 93.47 138.793 93.5528 138.664 93.645C138.676 93.4888 138.684 93.3325 138.684 93.1841C138.684 91.5265 138.025 89.9368 136.853 88.7647C135.681 87.5926 134.091 86.9341 132.434 86.9341C130.776 86.9341 129.187 87.5926 128.014 88.7647C126.842 89.9368 126.184 91.5265 126.184 93.1841C126.184 93.331 126.192 93.4872 126.204 93.645C126.074 93.556 125.943 93.47 125.817 93.3966C124.87 92.8481 123.795 92.5592 122.701 92.5591C122.151 92.5598 121.604 92.6323 121.073 92.7747C119.879 93.0947 118.807 93.7617 117.992 94.6911C117.177 95.6206 116.656 96.7709 116.494 97.9965C116.333 99.2221 116.539 100.468 117.086 101.577C117.633 102.685 118.496 103.607 119.567 104.225V104.222ZM132.434 100.059C133.299 100.059 134.145 100.316 134.864 100.796C135.584 101.277 136.145 101.96 136.476 102.76C136.807 103.559 136.894 104.439 136.725 105.288C136.556 106.136 136.139 106.916 135.527 107.528C134.916 108.14 134.136 108.556 133.287 108.725C132.439 108.894 131.559 108.807 130.76 108.476C129.96 108.145 129.277 107.584 128.796 106.865C128.315 106.145 128.059 105.299 128.059 104.434C128.059 103.274 128.52 102.161 129.34 101.34C130.161 100.52 131.274 100.059 132.434 100.059Z" fill="#FF0033"/>
</g>
</svg>
