<svg width="219" height="185" viewBox="0 0 219 185" fill="none" xmlns="http://www.w3.org/2000/svg">
<g opacity="0.1">
<path d="M197.031 93.2407L153.613 81.4108L155.092 75.9836C159.526 76.0363 163.852 74.6169 167.392 71.9477C170.933 69.2785 173.488 65.5104 174.658 61.2334C179.259 44.3489 166.257 29.2047 165.705 28.5684C165.057 27.8235 164.202 27.2874 163.249 27.0277C162.296 26.7681 161.287 26.7965 160.35 27.1094C159.552 27.3777 140.665 33.8335 136.065 50.718C134.903 54.9971 135.194 59.5407 136.891 63.637C138.588 67.7334 141.596 71.1511 145.444 73.3548L143.965 78.7819L100.548 66.9521C96.7097 65.9062 92.6131 66.428 89.1595 68.4026C85.7059 70.3772 83.1781 73.6429 82.1323 77.4812L78.2991 91.5496C76.8701 96.8136 77.165 102.397 79.1405 107.481L72.4977 131.861C71.4519 135.699 71.9736 139.796 73.9482 143.25C75.9228 146.703 79.1885 149.231 83.0268 150.277L169.861 173.937C173.7 174.982 177.796 174.461 181.25 172.486C184.703 170.511 187.231 167.246 188.277 163.407L194.92 139.027C199.201 135.648 202.288 130.986 203.727 125.725L207.56 111.656C208.606 107.818 208.084 103.721 206.109 100.268C204.135 96.8142 200.869 94.2865 197.031 93.2407ZM145.713 53.3468C147.943 45.1639 155.762 40.2401 160.256 38.0118C162.998 42.2117 167.239 50.4216 165.01 58.6045C164.313 61.1634 162.627 63.3405 160.325 64.6569C158.023 65.9733 155.292 66.3212 152.733 65.624C150.174 64.9267 147.997 63.2416 146.68 60.9392C145.364 58.6367 145.016 55.9057 145.713 53.3468ZM194.078 123.096C191.901 131.086 183.777 136.037 175.964 134.135C174.015 133.663 172.18 132.804 170.569 131.611C168.957 130.417 167.601 128.912 166.581 127.185C165.561 125.459 164.897 123.545 164.63 121.557C164.362 119.569 164.496 117.548 165.023 115.613C165.372 114.334 165.198 112.968 164.54 111.817C163.882 110.666 162.793 109.823 161.514 109.475C160.234 109.126 158.869 109.3 157.718 109.958C156.566 110.616 155.724 111.705 155.375 112.984C154.329 116.823 151.802 120.088 148.348 122.063C144.894 124.038 140.798 124.559 136.959 123.514C133.121 122.468 129.855 119.94 127.881 116.486C125.906 113.033 125.385 108.936 126.43 105.098C126.779 103.818 126.605 102.453 125.947 101.302C125.289 100.151 124.2 99.3079 122.921 98.9593C121.641 98.6107 120.276 98.7846 119.124 99.4428C117.973 100.101 117.131 101.19 116.782 102.469C116.255 104.405 115.346 106.215 114.107 107.793C112.869 109.371 111.326 110.685 109.571 111.656C107.815 112.627 105.883 113.237 103.888 113.448C101.893 113.659 99.8762 113.468 97.9563 112.886C90.2607 110.556 85.7703 102.168 87.9474 94.1784L91.7806 80.11C92.1292 78.8306 92.9718 77.742 94.123 77.0838C95.2742 76.4256 96.6397 76.2517 97.9191 76.6003L194.402 102.889C195.681 103.238 196.77 104.08 197.428 105.231C198.086 106.383 198.26 107.748 197.912 109.027L194.078 123.096Z" fill="#FF1BDD"/>
<path d="M22.074 45.2744L41.5878 37.8583L40.6608 35.4191C38.6161 35.643 36.5548 35.1823 34.8 34.1093C33.0451 33.0362 31.6957 31.4114 30.9632 29.4893C28.0791 21.9006 33.4003 14.3232 33.6266 14.0046C33.8925 13.6315 34.263 13.3455 34.6914 13.1827C35.1197 13.0199 35.5866 12.9877 36.0333 13.09C36.4141 13.1779 45.4247 15.3086 48.3087 22.8973C49.0376 24.8207 49.108 26.9316 48.5087 28.8993C47.9095 30.867 46.6745 32.5804 44.9972 33.7711L45.9242 36.2103L65.438 28.7942C67.1631 28.1386 69.078 28.1951 70.7614 28.9514C72.4449 29.7076 73.759 31.1017 74.4146 32.8268L76.8176 39.1498C77.7143 41.5159 77.8294 44.1071 77.1461 46.5434L81.3105 57.501C81.9661 59.2261 81.9095 61.141 81.1533 62.8245C80.397 64.5079 79.003 65.822 77.2779 66.4776L38.2503 81.3097C36.5252 81.9654 34.6103 81.9088 32.9268 81.1526C31.2434 80.3963 29.9293 79.0023 29.2737 77.2772L25.1094 66.3196C22.9804 64.9521 21.3456 62.9384 20.4444 60.574L18.0414 54.251C17.3858 52.5259 17.4423 50.6109 18.1986 48.9275C18.9549 47.2441 20.3489 45.93 22.074 45.2744ZM43.9723 24.5453C42.5746 20.8675 38.7427 18.946 36.5675 18.1195C35.4904 20.182 33.9018 24.1635 35.2995 27.8413C35.7366 28.9914 36.6127 29.9208 37.735 30.4249C38.8573 30.9291 40.1339 30.9668 41.284 30.5297C42.434 30.0926 43.3634 29.2166 43.8676 28.0943C44.3717 26.972 44.4094 25.6954 43.9723 24.5453ZM24.7808 58.926C26.1456 62.5171 30.1197 64.4372 33.6411 63.2075C34.5199 62.9017 35.3283 62.4229 36.0188 61.7992C36.7092 61.1756 37.2675 60.4198 37.6608 59.5766C38.054 58.7334 38.2742 57.8199 38.3082 56.8901C38.3423 55.9604 38.1895 55.0332 37.859 54.1635C37.6405 53.5885 37.6593 52.9502 37.9114 52.389C38.1635 51.8279 38.6282 51.3899 39.2032 51.1713C39.7783 50.9528 40.4166 50.9716 40.9777 51.2237C41.5389 51.4758 41.9769 51.9405 42.1954 52.5155C42.8511 54.2406 44.1651 55.6347 45.8486 56.3909C47.532 57.1472 49.4469 57.2037 51.172 56.5481C52.8972 55.8925 54.2912 54.5784 55.0475 52.8949C55.8037 51.2115 55.8602 49.2966 55.2046 47.5715C54.9861 46.9964 55.0049 46.3581 55.257 45.797C55.5091 45.2358 55.9738 44.7978 56.5488 44.5793C57.1239 44.3607 57.7622 44.3796 58.3233 44.6316C58.8845 44.8837 59.3225 45.3484 59.541 45.9234C59.8713 46.7935 60.3727 47.5885 61.0156 48.2613C61.6586 48.9342 62.4299 49.4712 63.2841 49.8407C64.1382 50.2101 65.0578 50.4045 65.9884 50.4123C66.919 50.4201 67.8417 50.2411 68.7019 49.886C72.1502 48.4638 73.846 44.3889 72.4812 40.7978L70.0782 34.4748C69.8596 33.8998 69.4216 33.4351 68.8605 33.183C68.2993 32.9309 67.661 32.9121 67.086 33.1306L23.722 49.6108C23.147 49.8293 22.6823 50.2673 22.4302 50.8285C22.1781 51.3896 22.1593 52.0279 22.3778 52.603L24.7808 58.926Z" fill="#FF1BDD"/>
<path d="M115.5 19.75L104.25 19.75V18.3437C105.323 18.0651 106.273 17.4384 106.952 16.5619C107.63 15.6853 107.999 14.6085 108 13.5C108 9.12499 103.869 6.32655 103.694 6.20936C103.488 6.07231 103.247 5.99918 103 5.99918C102.753 5.99918 102.512 6.07231 102.306 6.20936C102.131 6.32655 98 9.12499 98 13.5C98.001 14.6085 98.3697 15.6853 99.0483 16.5619C99.7269 17.4384 100.677 18.0651 101.75 18.3437V19.75H90.5C89.5054 19.75 88.5516 20.1451 87.8483 20.8483C87.1451 21.5516 86.75 22.5054 86.75 23.5V27.1453C86.7513 28.5089 87.1894 29.8363 88 30.9328V37.25C88 38.2446 88.3951 39.1984 89.0983 39.9016C89.8016 40.6049 90.7554 41 91.75 41H114.25C115.245 41 116.198 40.6049 116.902 39.9016C117.605 39.1984 118 38.2446 118 37.25V30.9328C118.811 29.8363 119.249 28.5089 119.25 27.1453V23.5C119.25 22.5054 118.855 21.5516 118.152 20.8483C117.448 20.1451 116.495 19.75 115.5 19.75ZM100.5 13.5C100.5 11.3797 102.062 9.67811 103 8.8453C103.938 9.67811 105.5 11.3797 105.5 13.5C105.5 14.163 105.237 14.7989 104.768 15.2678C104.299 15.7366 103.663 16 103 16C102.337 16 101.701 15.7366 101.232 15.2678C100.763 14.7989 100.5 14.163 100.5 13.5ZM116.75 27.1453C116.75 29.2156 115.116 30.9437 113.106 30.9984C112.605 31.0126 112.106 30.9262 111.639 30.7442C111.172 30.5622 110.746 30.2884 110.386 29.9389C110.027 29.5894 109.741 29.1714 109.546 28.7095C109.351 28.2477 109.25 27.7514 109.25 27.25C109.25 26.9185 109.118 26.6005 108.884 26.3661C108.649 26.1317 108.332 26 108 26C107.668 26 107.351 26.1317 107.116 26.3661C106.882 26.6005 106.75 26.9185 106.75 27.25C106.75 28.2446 106.355 29.1984 105.652 29.9016C104.948 30.6049 103.995 31 103 31C102.005 31 101.052 30.6049 100.348 29.9016C99.6451 29.1984 99.25 28.2446 99.25 27.25C99.25 26.9185 99.1183 26.6005 98.8839 26.3661C98.6495 26.1317 98.3315 26 98 26C97.6685 26 97.3505 26.1317 97.1161 26.3661C96.8817 26.6005 96.75 26.9185 96.75 27.25C96.7502 27.7515 96.6498 28.248 96.4547 28.71C96.2597 29.1721 95.9739 29.5903 95.6144 29.9399C95.2548 30.2896 94.8288 30.5635 94.3615 30.7456C93.8942 30.9277 93.3951 31.0142 92.8938 31C90.8844 30.9437 89.25 29.2156 89.25 27.1453V23.5C89.25 23.1685 89.3817 22.8505 89.6161 22.6161C89.8505 22.3817 90.1685 22.25 90.5 22.25L115.5 22.25C115.832 22.25 116.149 22.3817 116.384 22.6161C116.618 22.8505 116.75 23.1685 116.75 23.5V27.1453Z" fill="#FF1BDD"/>
</g>
</svg>
