<svg width="212" height="140" viewBox="0 0 212 140" fill="none" xmlns="http://www.w3.org/2000/svg">
<g opacity="0.2">
<path d="M131.863 -52.992C131.171 -53.3083 130.416 -53.4603 129.656 -53.4362C128.896 -53.4121 128.152 -53.2125 127.482 -52.8531L54.5826 -14.308C53.5978 -13.7874 52.8151 -12.9529 52.3586 -11.9368C51.9022 -10.9207 51.7981 -9.78128 52.0628 -8.6993L68.5133 58.1179C63.7964 56.4088 58.6437 56.3251 53.8738 57.8803C49.104 59.4354 44.9907 62.54 42.1877 66.7008C39.3846 70.8617 38.0526 75.84 38.4032 80.8447C38.7539 85.8494 40.7671 90.5933 44.123 94.3226C47.4789 98.0519 51.9849 100.553 56.925 101.427C61.8651 102.302 66.9559 101.501 71.3883 99.1506C75.8207 96.8004 79.3405 93.0362 81.3884 88.4563C83.4362 83.8763 83.8947 78.7433 82.6908 73.873L68.6833 16.9782L132.47 -16.7487L141.412 19.5729C136.696 17.8638 131.543 17.7801 126.773 19.3352C122.003 20.8903 117.89 23.995 115.087 28.1558C112.284 32.3166 110.952 37.295 111.302 42.2996C111.653 47.3043 113.666 52.0482 117.022 55.7775C120.378 59.5068 124.884 62.0076 129.824 62.8823C134.764 63.7571 139.855 62.9557 144.287 60.6055C148.72 58.2554 152.24 54.4912 154.287 49.9112C156.335 45.3313 156.794 40.1983 155.59 35.3279L134.672 -49.635C134.489 -50.3709 134.141 -51.0556 133.654 -51.6372C133.168 -52.2188 132.555 -52.6821 131.863 -52.992Z" fill="#FF0033"/>
<path d="M164.497 70.8981C164.22 70.679 163.897 70.5267 163.552 70.4533C163.207 70.3799 162.85 70.3872 162.508 70.4748L125.396 79.7528C124.895 79.8781 124.449 80.1672 124.131 80.5743C123.813 80.9814 123.64 81.4831 123.639 81.9998V113.922C121.704 112.629 119.392 112.02 117.071 112.191C114.75 112.363 112.553 113.305 110.829 114.869C109.105 116.432 107.952 118.527 107.555 120.82C107.158 123.113 107.539 125.473 108.637 127.525C109.735 129.577 111.488 131.204 113.616 132.145C115.744 133.087 118.126 133.291 120.383 132.724C122.641 132.157 124.643 130.852 126.074 129.016C127.504 127.18 128.28 124.918 128.278 122.591V95.4094L160.751 87.2912V104.644C158.816 103.351 156.504 102.742 154.183 102.913C151.862 103.085 149.665 104.027 147.941 105.591C146.217 107.154 145.064 109.249 144.667 111.542C144.27 113.835 144.651 116.195 145.749 118.247C146.847 120.299 148.6 121.926 150.728 122.867C152.856 123.809 155.238 124.013 157.495 123.446C159.753 122.879 161.755 121.574 163.186 119.738C164.616 117.902 165.392 115.64 165.39 113.313V72.7218C165.389 72.37 165.308 72.023 165.153 71.7071C164.999 71.3911 164.774 71.1145 164.497 70.8981Z" fill="#FF0033"/>
<path d="M205.269 41.7672C205.12 41.6491 204.946 41.5671 204.76 41.5275C204.574 41.4879 204.381 41.4919 204.197 41.5391L184.197 46.5391C183.927 46.6066 183.687 46.7624 183.515 46.9818C183.344 47.2012 183.25 47.4715 183.25 47.75V64.9531C182.207 64.2563 180.961 63.9281 179.71 64.0205C178.46 64.1129 177.276 64.6208 176.346 65.4633C175.417 66.3058 174.796 67.4347 174.582 68.6705C174.368 69.9064 174.574 71.1783 175.165 72.2842C175.757 73.39 176.702 74.2664 177.849 74.774C178.995 75.2816 180.279 75.3913 181.496 75.0857C182.712 74.7801 183.791 74.0767 184.562 73.0873C185.333 72.0979 185.751 70.8793 185.75 69.625V54.9766L203.25 50.6016V59.9531C202.207 59.2563 200.961 58.9281 199.71 59.0205C198.46 59.1129 197.276 59.6208 196.346 60.4633C195.417 61.3058 194.796 62.4347 194.582 63.6705C194.368 64.9064 194.574 66.1783 195.165 67.2842C195.757 68.39 196.702 69.2664 197.849 69.774C198.995 70.2816 200.279 70.3913 201.496 70.0857C202.712 69.7801 203.791 69.0767 204.562 68.0873C205.333 67.0979 205.751 65.8793 205.75 64.625V42.75C205.75 42.5604 205.706 42.3734 205.623 42.2032C205.539 42.0329 205.418 41.8838 205.269 41.7672Z" fill="#FF0033"/>
</g>
</svg>
