<svg width="228" height="184" viewBox="0 0 228 184" fill="none" xmlns="http://www.w3.org/2000/svg">
<g opacity="0.1">
<path d="M224.317 114.736C223.996 113.487 223.43 112.315 222.651 111.287C221.872 110.26 220.896 109.398 219.78 108.751C215.724 106.44 211.339 104.761 206.776 103.77C212.45 92.4575 213.22 82.4972 212.941 76.3902C212.831 73.8833 211.793 71.5069 210.028 69.7233C208.263 67.9396 205.897 66.8764 203.392 66.7405C196.883 66.4352 190.374 67.3223 184.184 69.3582C182.481 60.4641 178.757 52.0802 173.3 44.8536C171.967 43.1407 170.114 41.9063 168.02 41.3357C165.926 40.7651 163.703 40.8891 161.686 41.6891C153.307 45.1421 145.834 50.4755 139.845 57.2769C135.543 52.3827 130.384 48.316 124.62 45.2775C122.393 44.1212 119.815 43.8364 117.389 44.4787C114.964 45.1209 112.864 46.6442 111.501 48.7511C108.163 53.8722 103.776 62.8407 102.889 75.4639C98.4542 74.003 93.8232 73.2261 89.1549 73.16C87.8656 73.1509 86.5874 73.3988 85.395 73.8891C84.2026 74.3795 83.1198 75.1025 82.2098 76.016C81.2651 76.9474 80.5152 78.0575 80.0037 79.2816C79.4922 80.5057 79.2294 81.8194 79.2307 83.1461C79.2079 91.289 81.5568 107.418 97.4745 123.959C113.392 140.5 130.106 145.015 139.103 147.467C148.1 149.918 164.833 154.477 186.811 148.3C208.92 142.12 219.126 129.412 223.237 122.383C223.915 121.244 224.36 119.981 224.545 118.668C224.73 117.355 224.653 116.018 224.317 114.736ZM104.675 117.027C91.2325 103.051 89.2236 89.8592 89.2236 83.1546C93.9588 83.268 98.6289 84.2832 102.984 86.1459C103.392 90.6056 104.171 95.0235 105.312 99.3539C108.126 109.947 112.873 119.928 119.315 128.796C113.941 125.53 109.019 121.574 104.675 117.027ZM141.964 136.845C137.478 131.127 127.306 114.564 134.371 88.6347C141.349 63.0246 158.37 53.761 165.361 50.9757C169.969 56.9342 179.939 73.5521 172.961 99.1622C165.899 125.08 148.731 134.193 141.964 136.845ZM214.648 117.342C211.295 123.062 202.876 133.445 184.159 138.684C178.109 140.396 171.861 141.307 165.574 141.393C175.624 137.02 184.778 130.826 192.576 123.124C195.757 119.971 198.669 116.559 201.283 112.923C205.978 113.532 210.514 115.03 214.649 117.336L214.648 117.342Z" fill="#FF0033"/>
<path d="M15.2849 58.2855C15.3768 57.6945 15.5855 57.1277 15.8989 56.6183C16.2122 56.1088 16.624 55.6669 17.11 55.3183C18.879 54.0687 20.828 53.0958 22.89 52.4331C19.7613 47.4653 18.9573 42.9012 18.8114 40.069C18.7492 38.9066 19.1217 37.7626 19.8563 36.8596C20.591 35.9567 21.6353 35.3593 22.786 35.1838C25.7773 34.7499 28.8228 34.8665 31.7721 35.5279C32.1583 31.3448 33.5004 27.3062 35.6948 23.724C36.2332 22.8731 37.033 22.2198 37.9742 21.8621C38.9154 21.5044 39.9472 21.4616 40.9148 21.7402C44.9388 22.9574 48.6292 25.0835 51.7006 27.9543C53.4662 25.501 55.6655 23.3911 58.19 21.7288C59.1661 21.0947 60.3436 20.8471 61.4924 21.0345C62.6413 21.2219 63.6791 21.8307 64.4032 22.7421C66.1752 24.9564 68.6043 28.8997 69.5821 34.6881C71.5637 33.814 73.6669 33.2469 75.8194 33.0063C76.4143 32.944 77.0156 33.001 77.5882 33.1737C78.1608 33.3464 78.6933 33.6315 79.1545 34.0123C79.6326 34.3998 80.0289 34.8786 80.3201 35.4208C80.6114 35.963 80.7918 36.5577 80.851 37.1703C81.2279 40.9289 80.8693 48.4814 74.2645 56.8351C67.6596 65.1888 60.146 68.0257 56.1023 69.5625C52.0586 71.0992 44.5377 73.9575 34.1121 72.0947C23.6262 70.2362 18.3421 64.8282 16.1276 61.7679C15.7632 61.2723 15.5011 60.7092 15.3564 60.1114C15.2118 59.5135 15.1874 58.8929 15.2849 58.2855ZM70.6279 53.9585C76.2055 46.9009 76.5393 40.7195 76.2375 37.624C74.0563 37.8894 71.9458 38.5684 70.0189 39.6244C70.0312 41.7018 69.8704 43.7767 69.5383 45.8274C68.7161 50.845 66.9735 55.6672 64.3982 60.0512C66.7325 58.3018 68.827 56.2534 70.6279 53.9585ZM54.3031 64.7873C56.1169 61.9454 60.0681 53.8402 55.6391 42.1862C51.2647 30.6757 42.9887 27.1647 39.6357 26.1934C37.7763 29.1519 33.9211 37.2732 38.2956 48.7836C42.7226 60.4323 51.0596 63.8674 54.3031 64.7873ZM19.8664 59.0536C21.6719 61.5436 26.0265 65.9586 34.9041 67.5351C37.7744 68.0536 40.7003 68.193 43.6068 67.9497C38.7699 66.3827 34.2643 63.935 30.3173 60.73C28.707 59.4174 27.2088 57.9731 25.8381 56.4119C23.6978 56.9046 21.6708 57.8002 19.8654 59.0509L19.8664 59.0536Z" fill="#FF0033"/>
<path d="M130.411 24.0047C130.252 23.7246 130.038 23.479 129.783 23.2824C129.527 23.0857 129.235 22.9419 128.924 22.8594C127.794 22.5685 126.625 22.4515 125.46 22.5125C126.085 19.4109 125.616 16.9578 125.147 15.5031C124.956 14.9057 124.549 14.4007 124.007 14.0865C123.464 13.7722 122.823 13.6712 122.21 13.8031C120.62 14.1572 119.108 14.799 117.749 15.6969C116.753 13.6635 115.304 11.886 113.513 10.5016C113.079 10.176 112.551 10 112.008 10C111.466 10 110.938 10.176 110.504 10.5016C108.709 11.8851 107.257 13.6627 106.26 15.6969C104.901 14.799 103.389 14.1572 101.799 13.8031C101.186 13.6706 100.545 13.7713 100.002 14.0856C99.4595 14.4 99.0532 14.9054 98.8629 15.5031C98.3942 16.9578 97.9254 19.4094 98.5411 22.5125C97.3755 22.4515 96.2074 22.5685 95.077 22.8594C94.7654 22.9419 94.4734 23.0857 94.218 23.2824C93.9626 23.479 93.749 23.7246 93.5895 24.0047C93.4229 24.2914 93.3149 24.6085 93.272 24.9374C93.2291 25.2663 93.252 25.6004 93.3395 25.9203C93.8692 27.8859 95.4958 31.6219 100.422 34.5656C105.349 37.5094 109.677 37.5 112.008 37.5C114.34 37.5 118.675 37.5 123.571 34.5656C128.497 31.6219 130.124 27.8859 130.654 25.9203C130.742 25.6009 130.766 25.267 130.725 24.9382C130.683 24.6093 130.577 24.292 130.411 24.0047ZM101.704 32.4203C97.5426 29.9328 96.1911 26.8828 95.7504 25.2656C96.9 24.9818 98.0932 24.9197 99.2661 25.0828C99.6576 26.1317 100.136 27.1461 100.696 28.1156C102.071 30.4858 103.872 32.5815 106.008 34.2969C104.497 33.8625 103.05 33.2316 101.704 32.4203ZM112 34.75C110.543 33.6656 107 30.3391 107 23.6203C107 16.9844 110.497 13.6312 112 12.5C113.504 13.6344 117 16.9875 117 23.6234C117 30.3391 113.458 33.6656 112 34.75ZM128.25 25.2688C127.818 26.8687 126.469 29.9266 122.299 32.4203C120.952 33.231 119.505 33.8614 117.994 34.2953C120.131 32.5799 121.932 30.4843 123.307 28.1141C123.867 27.1446 124.345 26.1301 124.736 25.0813C125.909 24.9197 127.102 24.9828 128.25 25.2672V25.2688Z" fill="#FF0033"/>
</g>
</svg>
