<svg width="200" height="200" viewBox="0 0 200 200" fill="none" xmlns="http://www.w3.org/2000/svg">
<rect width="200" height="200" rx="100" fill="#F5FCF6"/>
<rect x="44" y="44" width="112" height="112" rx="56" fill="#A3E6B4"/>
<path d="M68 100C68 82.3269 82.3269 68 100 68C117.673 68 132 82.3269 132 100C132 117.673 117.673 132 100 132C82.3269 132 68 117.673 68 100Z" fill="white"/>
<path d="M100 67.5C93.5721 67.5 87.2886 69.4061 81.944 72.9772C76.5994 76.5484 72.4338 81.6242 69.9739 87.5628C67.5141 93.5014 66.8705 100.036 68.1245 106.34C69.3785 112.645 72.4738 118.436 77.019 122.981C81.5643 127.526 87.3552 130.621 93.6596 131.876C99.964 133.13 106.499 132.486 112.437 130.026C118.376 127.566 123.452 123.401 127.023 118.056C130.594 112.711 132.5 106.428 132.5 100C132.491 91.3833 129.064 83.122 122.971 77.0291C116.878 70.9361 108.617 67.5091 100 67.5ZM114.269 94.2688L96.7688 111.769C96.5366 112.001 96.2609 112.186 95.9574 112.311C95.6539 112.437 95.3286 112.502 95 112.502C94.6715 112.502 94.3462 112.437 94.0427 112.311C93.7392 112.186 93.4634 112.001 93.2313 111.769L85.7313 104.269C85.2622 103.8 84.9986 103.163 84.9986 102.5C84.9986 101.837 85.2622 101.2 85.7313 100.731C86.2004 100.262 86.8366 99.9986 87.5 99.9986C88.1634 99.9986 88.7997 100.262 89.2688 100.731L95 106.466L110.731 90.7312C110.964 90.499 111.239 90.3147 111.543 90.189C111.846 90.0633 112.172 89.9986 112.5 89.9986C112.829 89.9986 113.154 90.0633 113.457 90.189C113.761 90.3147 114.036 90.499 114.269 90.7312C114.501 90.9635 114.685 91.2393 114.811 91.5428C114.937 91.8462 115.001 92.1715 115.001 92.5C115.001 92.8285 114.937 93.1538 114.811 93.4572C114.685 93.7607 114.501 94.0365 114.269 94.2688Z" fill="#03A574"/>
</svg>
