<svg width="16" height="16" viewBox="0 0 16 16" fill="none" xmlns="http://www.w3.org/2000/svg">
<path d="M13.9065 5.58022L9.28652 1.88689C8.57318 1.31356 7.41985 1.31356 6.71318 1.88023L2.09318 5.58022C1.57318 5.99356 1.23985 6.86689 1.35318 7.52023L2.23985 12.8269C2.39985 13.7736 3.30652 14.5402 4.26652 14.5402H11.7332C12.6865 14.5402 13.5999 13.7669 13.7599 12.8269L14.6465 7.52023C14.7532 6.86689 14.4199 5.99356 13.9065 5.58022ZM7.99985 10.3336C7.07985 10.3336 6.33318 9.58689 6.33318 8.66689C6.33318 7.74689 7.07985 7.00023 7.99985 7.00023C8.91985 7.00023 9.66652 7.74689 9.66652 8.66689C9.66652 9.58689 8.91985 10.3336 7.99985 10.3336Z" fill="#08AA3B"/>
</svg>
