<svg width="465" height="241" viewBox="0 0 465 241" fill="none" xmlns="http://www.w3.org/2000/svg">
<path d="M9.37784 135.749C8.30966 135.749 7.3267 135.609 6.42898 135.327C5.53125 135.046 4.70312 134.636 3.9446 134.096L3.9446 132.928C4.22585 133.138 4.57102 133.335 4.98011 133.516C5.3892 133.698 5.83807 133.857 6.3267 133.994C6.8125 134.13 7.31676 134.237 7.83949 134.313C8.35937 134.39 8.87216 134.428 9.37784 134.428C10.054 134.428 10.7386 134.362 11.4318 134.228C12.125 134.094 12.7685 133.914 13.3622 133.687C13.956 133.46 14.4403 133.207 14.8153 132.928L14.8153 134.096C14.0568 134.636 13.2287 135.046 12.331 135.327C11.4332 135.609 10.4489 135.749 9.37784 135.749ZM7.46023 123.501L8.3125 123.501L8.3125 132.194L7.46023 132.194L7.46023 123.501ZM9.30114 123.501L10.1534 123.501L10.1534 132.194L9.30114 132.194L9.30114 123.501ZM4.27273 124.324L13 124.324L13 125.538L6.59943 129.974L6.59943 130.051L13 130.051L13 131.372L4.27273 131.372L4.27273 130.149L10.6818 125.713L10.6818 125.632L4.27273 125.632L4.27273 124.324ZM8.63636 119.947C9.70739 119.947 10.6918 120.088 11.5895 120.369C12.4872 120.65 13.3153 121.061 14.0739 121.6L14.0739 122.768C13.7926 122.558 13.4474 122.362 13.0384 122.18C12.6293 121.998 12.1818 121.839 11.696 121.703C11.2074 121.566 10.7017 121.46 10.179 121.383C9.65625 121.306 9.14204 121.268 8.63636 121.268C7.96307 121.268 7.27983 121.335 6.58665 121.468C5.89347 121.602 5.25 121.782 4.65625 122.01C4.0625 122.237 3.57812 122.49 3.20312 122.768L3.20312 121.6C3.96165 121.061 4.78977 120.65 5.6875 120.369C6.58523 120.088 7.56818 119.947 8.63636 119.947ZM6.45454 113.681L9.00284 112.236L6.45454 110.779L6.45454 109.385L9.72727 111.426L13 109.368L13 110.762L10.554 112.236L13 113.706L13 115.104L9.72727 113.067L6.45454 115.078L6.45454 113.681ZM4.27273 104.783L13 104.783L13 106.104L5.59375 106.104L5.59375 106.155L6.95739 108.243L5.69602 108.243L4.27273 106.066L4.27273 104.783ZM13.1449 99.3839C13.142 100.057 12.9645 100.632 12.6122 101.11C12.2599 101.587 11.7472 101.952 11.0739 102.205C10.4006 102.458 9.58949 102.584 8.64062 102.584C7.6946 102.584 6.88636 102.458 6.21591 102.205C5.54545 101.949 5.03409 101.583 4.68182 101.105C4.32954 100.625 4.15341 100.051 4.15341 99.3839C4.15341 98.7163 4.33096 98.1438 4.68608 97.6665C5.03835 97.1893 5.54971 96.8242 6.22017 96.5714C6.88778 96.3157 7.6946 96.1879 8.64062 96.1879C9.59233 96.1879 10.4048 96.3143 11.0781 96.5671C11.7486 96.82 12.2614 97.185 12.6165 97.6623C12.9687 98.1396 13.1449 98.7134 13.1449 99.3839ZM12.0071 99.3839C12.0071 98.793 11.7187 98.3313 11.142 97.9989C10.5653 97.6637 9.73153 97.4961 8.64062 97.4961C7.91619 97.4961 7.30398 97.5728 6.80398 97.7262C6.30113 97.8768 5.92045 98.0941 5.66193 98.3782C5.40057 98.6594 5.26988 98.9947 5.26988 99.3839C5.26988 99.9719 5.55966 100.434 6.1392 100.769C6.71875 101.104 7.55256 101.273 8.64062 101.276C9.3679 101.276 9.98295 101.201 10.4858 101.05C10.9858 100.897 11.3651 100.679 11.6236 100.398C11.8793 100.117 12.0071 99.7788 12.0071 99.3839ZM13.1449 91.6378C13.142 92.3111 12.9645 92.8864 12.6122 93.3636C12.2599 93.8409 11.7472 94.206 11.0739 94.4588C10.4006 94.7116 9.58949 94.8381 8.64062 94.8381C7.6946 94.8381 6.88636 94.7116 6.21591 94.4588C5.54545 94.2031 5.03409 93.8366 4.68182 93.3594C4.32954 92.8793 4.15341 92.3054 4.15341 91.6378C4.15341 90.9702 4.33096 90.3977 4.68608 89.9205C5.03835 89.4432 5.54971 89.0781 6.22017 88.8253C6.88778 88.5696 7.6946 88.4418 8.64062 88.4418C9.59233 88.4418 10.4048 88.5682 11.0781 88.821C11.7486 89.0739 12.2614 89.4389 12.6165 89.9162C12.9687 90.3935 13.1449 90.9673 13.1449 91.6378ZM12.0071 91.6378C12.0071 91.0469 11.7187 90.5852 11.142 90.2528C10.5653 89.9176 9.73153 89.75 8.64062 89.75C7.91619 89.75 7.30397 89.8267 6.80397 89.9801C6.30113 90.1307 5.92045 90.348 5.66193 90.6321C5.40057 90.9134 5.26988 91.2486 5.26988 91.6378C5.26988 92.2259 5.55966 92.6875 6.1392 93.0227C6.71875 93.358 7.55255 93.527 8.64062 93.5298C9.3679 93.5298 9.98295 93.4545 10.4858 93.304C10.9858 93.1506 11.3651 92.9332 11.6236 92.652C11.8793 92.3707 12.0071 92.0327 12.0071 91.6378ZM13.1449 83.8917C13.142 84.565 12.9645 85.1403 12.6122 85.6175C12.2599 86.0948 11.7472 86.4599 11.0739 86.7127C10.4006 86.9656 9.58949 87.092 8.64062 87.092C7.6946 87.092 6.88636 86.9656 6.21591 86.7127C5.54545 86.457 5.03409 86.0906 4.68182 85.6133C4.32954 85.1332 4.15341 84.5593 4.15341 83.8917C4.15341 83.2241 4.33096 82.6516 4.68608 82.1744C5.03835 81.6971 5.54971 81.332 6.22017 81.0792C6.88778 80.8235 7.6946 80.6957 8.64062 80.6957C9.59233 80.6957 10.4048 80.8221 11.0781 81.0749C11.7486 81.3278 12.2614 81.6928 12.6165 82.1701C12.9687 82.6474 13.1449 83.2212 13.1449 83.8917ZM12.0071 83.8917C12.0071 83.3008 11.7187 82.8391 11.142 82.5067C10.5653 82.1715 9.73153 82.0039 8.64062 82.0039C7.91619 82.0039 7.30397 82.0806 6.80397 82.234C6.30113 82.3846 5.92045 82.6019 5.66193 82.886C5.40057 83.1673 5.26988 83.5025 5.26988 83.8917C5.26988 84.4798 5.55966 84.9414 6.1392 85.2766C6.71875 85.6119 7.55255 85.7809 8.64062 85.7837C9.3679 85.7837 9.98295 85.7085 10.4858 85.5579C10.9858 85.4045 11.3651 85.1871 11.6236 84.9059C11.8793 84.6246 12.0071 84.2866 12.0071 83.8917Z" fill="#717171"/>
<path d="M27.3505 6.77273V15.5H26.2937V7.88068H26.2425L24.1119 9.29545V8.22159L26.2937 6.77273H27.3505ZM30.8619 14.3068L30.7937 14.767C30.7454 15.0909 30.6715 15.4375 30.5721 15.8068C30.4755 16.1761 30.3746 16.5241 30.2695 16.8509C30.1644 17.1776 30.0778 17.4375 30.0096 17.6307H29.2425C29.2795 17.4489 29.3278 17.2088 29.3874 16.9105C29.4471 16.6122 29.5067 16.2784 29.5664 15.9091C29.6289 15.5426 29.68 15.1676 29.7198 14.7841L29.771 14.3068H30.8619ZM35.25 15.6193C34.608 15.6193 34.0611 15.4446 33.6094 15.0952C33.1577 14.7429 32.8125 14.233 32.5739 13.5653C32.3352 12.8949 32.2159 12.0852 32.2159 11.1364C32.2159 10.1932 32.3352 9.38778 32.5739 8.72017C32.8153 8.04972 33.1619 7.53835 33.6136 7.18608C34.0682 6.83097 34.6136 6.65341 35.25 6.65341C35.8864 6.65341 36.4304 6.83097 36.8821 7.18608C37.3366 7.53835 37.6832 8.04972 37.9219 8.72017C38.1634 9.38778 38.2841 10.1932 38.2841 11.1364C38.2841 12.0852 38.1648 12.8949 37.9261 13.5653C37.6875 14.233 37.3423 14.7429 36.8906 15.0952C36.4389 15.4446 35.892 15.6193 35.25 15.6193ZM35.25 14.6818C35.8864 14.6818 36.3807 14.375 36.733 13.7614C37.0852 13.1477 37.2614 12.2727 37.2614 11.1364C37.2614 10.3807 37.1804 9.73722 37.0185 9.20597C36.8594 8.67472 36.6293 8.26989 36.3281 7.99148C36.0298 7.71307 35.6705 7.57386 35.25 7.57386C34.6193 7.57386 34.1264 7.88494 33.7713 8.5071C33.4162 9.12642 33.2386 10.0028 33.2386 11.1364C33.2386 11.892 33.3182 12.5341 33.4773 13.0625C33.6364 13.5909 33.8651 13.9929 34.1634 14.2685C34.4645 14.544 34.8267 14.6818 35.25 14.6818ZM42.75 15.6193C42.108 15.6193 41.5611 15.4446 41.1094 15.0952C40.6577 14.7429 40.3125 14.233 40.0739 13.5653C39.8352 12.8949 39.7159 12.0852 39.7159 11.1364C39.7159 10.1932 39.8352 9.38778 40.0739 8.72017C40.3153 8.04972 40.6619 7.53835 41.1136 7.18608C41.5682 6.83097 42.1136 6.65341 42.75 6.65341C43.3864 6.65341 43.9304 6.83097 44.3821 7.18608C44.8366 7.53835 45.1832 8.04972 45.4219 8.72017C45.6634 9.38778 45.7841 10.1932 45.7841 11.1364C45.7841 12.0852 45.6648 12.8949 45.4261 13.5653C45.1875 14.233 44.8423 14.7429 44.3906 15.0952C43.9389 15.4446 43.392 15.6193 42.75 15.6193ZM42.75 14.6818C43.3864 14.6818 43.8807 14.375 44.233 13.7614C44.5852 13.1477 44.7614 12.2727 44.7614 11.1364C44.7614 10.3807 44.6804 9.73722 44.5185 9.20597C44.3594 8.67472 44.1293 8.26989 43.8281 7.99148C43.5298 7.71307 43.1705 7.57386 42.75 7.57386C42.1193 7.57386 41.6264 7.88494 41.2713 8.5071C40.9162 9.12642 40.7386 10.0028 40.7386 11.1364C40.7386 11.892 40.8182 12.5341 40.9773 13.0625C41.1364 13.5909 41.3651 13.9929 41.6634 14.2685C41.9645 14.544 42.3267 14.6818 42.75 14.6818ZM50.25 15.6193C49.608 15.6193 49.0611 15.4446 48.6094 15.0952C48.1577 14.7429 47.8125 14.233 47.5739 13.5653C47.3352 12.8949 47.2159 12.0852 47.2159 11.1364C47.2159 10.1932 47.3352 9.38778 47.5739 8.72017C47.8153 8.04972 48.1619 7.53835 48.6136 7.18608C49.0682 6.83097 49.6136 6.65341 50.25 6.65341C50.8864 6.65341 51.4304 6.83097 51.8821 7.18608C52.3366 7.53835 52.6832 8.04972 52.9219 8.72017C53.1634 9.38778 53.2841 10.1932 53.2841 11.1364C53.2841 12.0852 53.1648 12.8949 52.9261 13.5653C52.6875 14.233 52.3423 14.7429 51.8906 15.0952C51.4389 15.4446 50.892 15.6193 50.25 15.6193ZM50.25 14.6818C50.8864 14.6818 51.3807 14.375 51.733 13.7614C52.0852 13.1477 52.2614 12.2727 52.2614 11.1364C52.2614 10.3807 52.1804 9.73722 52.0185 9.20597C51.8594 8.67472 51.6293 8.26989 51.3281 7.99148C51.0298 7.71307 50.6705 7.57386 50.25 7.57386C49.6193 7.57386 49.1264 7.88494 48.7713 8.5071C48.4162 9.12642 48.2386 10.0028 48.2386 11.1364C48.2386 11.892 48.3182 12.5341 48.4773 13.0625C48.6364 13.5909 48.8651 13.9929 49.1634 14.2685C49.4645 14.544 49.8267 14.6818 50.25 14.6818Z" fill="#717171"/>
<line x1="62.5" y1="11.5" x2="463.5" y2="11.5" stroke="#D6D6D6" stroke-linecap="round"/>
<path d="M35.3043 53.3195C34.7191 53.3195 34.2021 53.2158 33.7532 53.0084C33.3072 52.7982 32.9592 52.5099 32.7092 52.1434C32.4592 51.7741 32.3356 51.3536 32.3384 50.882C32.3356 50.5127 32.408 50.1718 32.5558 49.8593C32.7035 49.5439 32.9052 49.2812 33.1609 49.0709C33.4194 48.8579 33.7077 48.7229 34.0259 48.6661V48.615C33.6083 48.507 33.2759 48.2726 33.0288 47.9118C32.7816 47.5482 32.6594 47.1349 32.6623 46.6718C32.6594 46.2286 32.7717 45.8323 32.9989 45.4829C33.2262 45.1334 33.5387 44.8579 33.9364 44.6562C34.337 44.4545 34.793 44.3536 35.3043 44.3536C35.81 44.3536 36.2617 44.4545 36.6594 44.6562C37.0572 44.8579 37.3697 45.1334 37.5969 45.4829C37.8271 45.8323 37.9435 46.2286 37.9464 46.6718C37.9435 47.1349 37.8171 47.5482 37.5671 47.9118C37.32 48.2726 36.9918 48.507 36.5827 48.615V48.6661C36.8981 48.7229 37.1822 48.8579 37.435 49.0709C37.6879 49.2812 37.8896 49.5439 38.0401 49.8593C38.1907 50.1718 38.2674 50.5127 38.2702 50.882C38.2674 51.3536 38.1396 51.7741 37.8867 52.1434C37.6367 52.5099 37.2887 52.7982 36.8427 53.0084C36.3995 53.2158 35.8867 53.3195 35.3043 53.3195ZM35.3043 52.382C35.6992 52.382 36.0401 52.3181 36.3271 52.1903C36.614 52.0624 36.8356 51.882 36.9918 51.6491C37.1481 51.4161 37.2276 51.1434 37.2305 50.8309C37.2276 50.5013 37.1424 50.2101 36.9748 49.9573C36.8072 49.7045 36.5785 49.5056 36.2887 49.3607C36.0018 49.2158 35.6737 49.1434 35.3043 49.1434C34.9322 49.1434 34.5998 49.2158 34.3072 49.3607C34.0174 49.5056 33.7887 49.7045 33.6211 49.9573C33.4563 50.2101 33.3754 50.5013 33.3782 50.8309C33.3754 51.1434 33.4506 51.4161 33.604 51.6491C33.7603 51.882 33.9833 52.0624 34.2731 52.1903C34.5629 52.3181 34.9066 52.382 35.3043 52.382ZM35.3043 48.24C35.6168 48.24 35.8938 48.1775 36.1353 48.0525C36.3796 47.9275 36.5714 47.7528 36.7106 47.5283C36.8498 47.3039 36.9208 47.0411 36.9237 46.74C36.9208 46.4445 36.8512 46.1874 36.7148 45.9687C36.5785 45.7471 36.3896 45.5766 36.1481 45.4573C35.9066 45.3351 35.6254 45.2741 35.3043 45.2741C34.9776 45.2741 34.6921 45.3351 34.4478 45.4573C34.2035 45.5766 34.0146 45.7471 33.881 45.9687C33.7475 46.1874 33.6822 46.4445 33.685 46.74C33.6822 47.0411 33.7489 47.3039 33.8853 47.5283C34.0245 47.7528 34.2163 47.9275 34.4606 48.0525C34.7049 48.1775 34.9862 48.24 35.3043 48.24ZM42.75 53.3195C42.108 53.3195 41.5611 53.1448 41.1094 52.7954C40.6577 52.4431 40.3125 51.9331 40.0739 51.2655C39.8352 50.5951 39.7159 49.7854 39.7159 48.8366C39.7159 47.8934 39.8352 47.088 40.0739 46.4204C40.3153 45.7499 40.6619 45.2385 41.1136 44.8863C41.5682 44.5312 42.1136 44.3536 42.75 44.3536C43.3864 44.3536 43.9304 44.5312 44.3821 44.8863C44.8366 45.2385 45.1832 45.7499 45.4219 46.4204C45.6634 47.088 45.7841 47.8934 45.7841 48.8366C45.7841 49.7854 45.6648 50.5951 45.4261 51.2655C45.1875 51.9331 44.8423 52.4431 44.3906 52.7954C43.9389 53.1448 43.392 53.3195 42.75 53.3195ZM42.75 52.382C43.3864 52.382 43.8807 52.0752 44.233 51.4616C44.5852 50.8479 44.7614 49.9729 44.7614 48.8366C44.7614 48.0809 44.6804 47.4374 44.5185 46.9062C44.3594 46.3749 44.1293 45.9701 43.8281 45.6917C43.5298 45.4133 43.1705 45.2741 42.75 45.2741C42.1193 45.2741 41.6264 45.5851 41.2713 46.2073C40.9162 46.8266 40.7386 47.703 40.7386 48.8366C40.7386 49.5922 40.8182 50.2343 40.9773 50.7627C41.1364 51.2911 41.3651 51.6931 41.6634 51.9687C41.9645 52.2442 42.3267 52.382 42.75 52.382ZM50.25 53.3195C49.608 53.3195 49.0611 53.1448 48.6094 52.7954C48.1577 52.4431 47.8125 51.9331 47.5739 51.2655C47.3352 50.5951 47.2159 49.7854 47.2159 48.8366C47.2159 47.8934 47.3352 47.088 47.5739 46.4204C47.8153 45.7499 48.1619 45.2385 48.6136 44.8863C49.0682 44.5312 49.6136 44.3536 50.25 44.3536C50.8864 44.3536 51.4304 44.5312 51.8821 44.8863C52.3366 45.2385 52.6832 45.7499 52.9219 46.4204C53.1634 47.088 53.2841 47.8934 53.2841 48.8366C53.2841 49.7854 53.1648 50.5951 52.9261 51.2655C52.6875 51.9331 52.3423 52.4431 51.8906 52.7954C51.4389 53.1448 50.892 53.3195 50.25 53.3195ZM50.25 52.382C50.8864 52.382 51.3807 52.0752 51.733 51.4616C52.0852 50.8479 52.2614 49.9729 52.2614 48.8366C52.2614 48.0809 52.1804 47.4374 52.0185 46.9062C51.8594 46.3749 51.6293 45.9701 51.3281 45.6917C51.0298 45.4133 50.6705 45.2741 50.25 45.2741C49.6193 45.2741 49.1264 45.5851 48.7713 46.2073C48.4162 46.8266 48.2386 47.703 48.2386 48.8366C48.2386 49.5922 48.3182 50.2343 48.4773 50.7627C48.6364 51.2911 48.8651 51.6931 49.1634 51.9687C49.4645 52.2442 49.8267 52.382 50.25 52.382Z" fill="#717171"/>
<line x1="62.5" y1="49.2002" x2="463.5" y2="49.2002" stroke="#D6D6D6" stroke-linecap="round"/>
<path d="M35.3129 88.5192C34.9549 88.5135 34.5969 88.4454 34.239 88.3147C33.881 88.184 33.5543 87.9638 33.2589 87.6542C32.9634 87.3417 32.7262 86.9198 32.5472 86.3885C32.3683 85.8544 32.2788 85.184 32.2788 84.3772C32.2788 83.6044 32.3512 82.9198 32.4961 82.3232C32.641 81.7238 32.8512 81.2195 33.1268 80.8104C33.4023 80.3985 33.7347 80.086 34.1239 79.8729C34.516 79.6598 34.9577 79.5533 35.4492 79.5533C35.9379 79.5533 36.3725 79.6513 36.7532 79.8473C37.1367 80.0405 37.4492 80.3104 37.6907 80.657C37.9322 81.0036 38.0884 81.4027 38.1594 81.8544H37.1197C37.0231 81.4624 36.8356 81.1371 36.5572 80.8786C36.2788 80.6201 35.9094 80.4908 35.4492 80.4908C34.7731 80.4908 34.2404 80.7848 33.8512 81.3729C33.4648 81.961 33.2702 82.7863 33.2674 83.8488H33.3356C33.4947 83.6073 33.6836 83.4013 33.9023 83.2309C34.1239 83.0576 34.3683 82.924 34.6353 82.8303C34.9023 82.7365 35.185 82.6897 35.4833 82.6897C35.9833 82.6897 36.4407 82.8147 36.8555 83.0647C37.2702 83.3118 37.6026 83.6542 37.8526 84.0917C38.1026 84.5263 38.2276 85.0249 38.2276 85.5874C38.2276 86.1272 38.1069 86.6215 37.8654 87.0704C37.6239 87.5164 37.2844 87.8715 36.8469 88.1357C36.4123 88.3971 35.9009 88.5249 35.3129 88.5192ZM35.3129 87.5817C35.6708 87.5817 35.9918 87.4922 36.2759 87.3133C36.5629 87.1343 36.7887 86.8942 36.9535 86.5931C37.1211 86.2919 37.2049 85.9567 37.2049 85.5874C37.2049 85.2266 37.1239 84.8985 36.962 84.603C36.8029 84.3047 36.5827 84.0675 36.3015 83.8914C36.0231 83.7152 35.7049 83.6272 35.3469 83.6272C35.0771 83.6272 34.8256 83.6812 34.5927 83.7891C34.3597 83.8942 34.1552 84.0391 33.979 84.2238C33.8058 84.4084 33.6694 84.6201 33.57 84.8587C33.4705 85.0945 33.4208 85.3431 33.4208 85.6044C33.4208 85.951 33.5018 86.2749 33.6637 86.576C33.8285 86.8772 34.0529 87.1201 34.337 87.3047C34.6239 87.4894 34.9492 87.5817 35.3129 87.5817ZM42.75 88.5192C42.108 88.5192 41.5611 88.3445 41.1094 87.9951C40.6577 87.6428 40.3125 87.1329 40.0739 86.4652C39.8352 85.7948 39.7159 84.9851 39.7159 84.0363C39.7159 83.0931 39.8352 82.2877 40.0739 81.6201C40.3153 80.9496 40.6619 80.4383 41.1136 80.086C41.5682 79.7309 42.1136 79.5533 42.75 79.5533C43.3864 79.5533 43.9304 79.7309 44.3821 80.086C44.8366 80.4383 45.1832 80.9496 45.4219 81.6201C45.6634 82.2877 45.7841 83.0931 45.7841 84.0363C45.7841 84.9851 45.6648 85.7948 45.4261 86.4652C45.1875 87.1329 44.8423 87.6428 44.3906 87.9951C43.9389 88.3445 43.392 88.5192 42.75 88.5192ZM42.75 87.5817C43.3864 87.5817 43.8807 87.2749 44.233 86.6613C44.5852 86.0476 44.7614 85.1726 44.7614 84.0363C44.7614 83.2806 44.6804 82.6371 44.5185 82.1059C44.3594 81.5746 44.1293 81.1698 43.8281 80.8914C43.5298 80.613 43.1705 80.4738 42.75 80.4738C42.1193 80.4738 41.6264 80.7848 41.2713 81.407C40.9162 82.0263 40.7386 82.9027 40.7386 84.0363C40.7386 84.7919 40.8182 85.434 40.9773 85.9624C41.1364 86.4908 41.3651 86.8928 41.6634 87.1684C41.9645 87.4439 42.3267 87.5817 42.75 87.5817ZM50.25 88.5192C49.608 88.5192 49.0611 88.3445 48.6094 87.9951C48.1577 87.6428 47.8125 87.1329 47.5739 86.4652C47.3352 85.7948 47.2159 84.9851 47.2159 84.0363C47.2159 83.0931 47.3352 82.2877 47.5739 81.6201C47.8153 80.9496 48.1619 80.4383 48.6136 80.086C49.0682 79.7309 49.6136 79.5533 50.25 79.5533C50.8864 79.5533 51.4304 79.7309 51.8821 80.086C52.3366 80.4383 52.6832 80.9496 52.9219 81.6201C53.1634 82.2877 53.2841 83.0931 53.2841 84.0363C53.2841 84.9851 53.1648 85.7948 52.9261 86.4652C52.6875 87.1329 52.3423 87.6428 51.8906 87.9951C51.4389 88.3445 50.892 88.5192 50.25 88.5192ZM50.25 87.5817C50.8864 87.5817 51.3807 87.2749 51.733 86.6613C52.0852 86.0476 52.2614 85.1726 52.2614 84.0363C52.2614 83.2806 52.1804 82.6371 52.0185 82.1059C51.8594 81.5746 51.6293 81.1698 51.3281 80.8914C51.0298 80.613 50.6705 80.4738 50.25 80.4738C49.6193 80.4738 49.1264 80.7848 48.7713 81.407C48.4162 82.0263 48.2386 82.9027 48.2386 84.0363C48.2386 84.7919 48.3182 85.434 48.4773 85.9624C48.6364 86.4908 48.8651 86.8928 49.1634 87.1684C49.4645 87.4439 49.8267 87.5817 50.25 87.5817Z" fill="#717171"/>
<line x1="62.5" y1="84.3999" x2="463.5" y2="84.3999" stroke="#D6D6D6" stroke-linecap="round"/>
<path d="M31.9996 121.81V120.941L35.8349 114.873H36.4656V116.219H36.0394L33.1417 120.805V120.873H38.3065V121.81H31.9996ZM36.1076 123.6V121.546V121.141V114.873H37.1133V123.6H36.1076ZM42.75 123.719C42.108 123.719 41.5611 123.545 41.1094 123.195C40.6577 122.843 40.3125 122.333 40.0739 121.665C39.8352 120.995 39.7159 120.185 39.7159 119.236C39.7159 118.293 39.8352 117.488 40.0739 116.82C40.3153 116.15 40.6619 115.638 41.1136 115.286C41.5682 114.931 42.1136 114.754 42.75 114.754C43.3864 114.754 43.9304 114.931 44.3821 115.286C44.8366 115.638 45.1832 116.15 45.4219 116.82C45.6634 117.488 45.7841 118.293 45.7841 119.236C45.7841 120.185 45.6648 120.995 45.4261 121.665C45.1875 122.333 44.8423 122.843 44.3906 123.195C43.9389 123.545 43.392 123.719 42.75 123.719ZM42.75 122.782C43.3864 122.782 43.8807 122.475 44.233 121.861C44.5852 121.248 44.7614 120.373 44.7614 119.236C44.7614 118.481 44.6804 117.837 44.5185 117.306C44.3594 116.775 44.1293 116.37 43.8281 116.092C43.5298 115.813 43.1705 115.674 42.75 115.674C42.1193 115.674 41.6264 115.985 41.2713 116.607C40.9162 117.227 40.7386 118.103 40.7386 119.236C40.7386 119.992 40.8182 120.634 40.9773 121.163C41.1364 121.691 41.3651 122.093 41.6634 122.369C41.9645 122.644 42.3267 122.782 42.75 122.782ZM50.25 123.719C49.608 123.719 49.0611 123.545 48.6094 123.195C48.1577 122.843 47.8125 122.333 47.5739 121.665C47.3352 120.995 47.2159 120.185 47.2159 119.236C47.2159 118.293 47.3352 117.488 47.5739 116.82C47.8153 116.15 48.1619 115.638 48.6136 115.286C49.0682 114.931 49.6136 114.754 50.25 114.754C50.8864 114.754 51.4304 114.931 51.8821 115.286C52.3366 115.638 52.6832 116.15 52.9219 116.82C53.1634 117.488 53.2841 118.293 53.2841 119.236C53.2841 120.185 53.1648 120.995 52.9261 121.665C52.6875 122.333 52.3423 122.843 51.8906 123.195C51.4389 123.545 50.892 123.719 50.25 123.719ZM50.25 122.782C50.8864 122.782 51.3807 122.475 51.733 121.861C52.0852 121.248 52.2614 120.373 52.2614 119.236C52.2614 118.481 52.1804 117.837 52.0185 117.306C51.8594 116.775 51.6293 116.37 51.3281 116.092C51.0298 115.813 50.6705 115.674 50.25 115.674C49.6193 115.674 49.1264 115.985 48.7713 116.607C48.4162 117.227 48.2386 118.103 48.2386 119.236C48.2386 119.992 48.3182 120.634 48.4773 121.163C48.6364 121.691 48.8651 122.093 49.1634 122.369C49.4645 122.644 49.8267 122.782 50.25 122.782Z" fill="#717171"/>
<line x1="62.5" y1="119.6" x2="463.5" y2="119.6" stroke="#D6D6D6" stroke-linecap="round"/>
<path d="M32.6378 158.8V158.033L35.5185 154.879C35.8565 154.51 36.1349 154.189 36.3537 153.916C36.5724 153.641 36.7344 153.382 36.8395 153.141C36.9474 152.896 37.0014 152.641 37.0014 152.374C37.0014 152.067 36.9276 151.801 36.7798 151.577C36.6349 151.352 36.4361 151.179 36.1832 151.057C35.9304 150.935 35.6463 150.874 35.331 150.874C34.9957 150.874 34.7031 150.943 34.4531 151.082C34.206 151.219 34.0142 151.411 33.8778 151.658C33.7443 151.905 33.6776 152.195 33.6776 152.527H32.6719C32.6719 152.016 32.7898 151.567 33.0256 151.18C33.2614 150.794 33.5824 150.493 33.9886 150.277C34.3977 150.061 34.8565 149.953 35.3651 149.953C35.8764 149.953 36.3295 150.061 36.7244 150.277C37.1193 150.493 37.429 150.784 37.6534 151.151C37.8778 151.517 37.9901 151.925 37.9901 152.374C37.9901 152.695 37.9318 153.009 37.8153 153.315C37.7017 153.619 37.5028 153.959 37.2188 154.334C36.9375 154.706 36.5469 155.161 36.0469 155.698L34.0866 157.794V157.862H38.1435V158.8H32.6378ZM42.75 158.919C42.108 158.919 41.5611 158.744 41.1094 158.395C40.6577 158.043 40.3125 157.533 40.0739 156.865C39.8352 156.195 39.7159 155.385 39.7159 154.436C39.7159 153.493 39.8352 152.688 40.0739 152.02C40.3153 151.35 40.6619 150.838 41.1136 150.486C41.5682 150.131 42.1136 149.953 42.75 149.953C43.3864 149.953 43.9304 150.131 44.3821 150.486C44.8366 150.838 45.1832 151.35 45.4219 152.02C45.6634 152.688 45.7841 153.493 45.7841 154.436C45.7841 155.385 45.6648 156.195 45.4261 156.865C45.1875 157.533 44.8423 158.043 44.3906 158.395C43.9389 158.744 43.392 158.919 42.75 158.919ZM42.75 157.982C43.3864 157.982 43.8807 157.675 44.233 157.061C44.5852 156.448 44.7614 155.573 44.7614 154.436C44.7614 153.68 44.6804 153.037 44.5185 152.506C44.3594 151.975 44.1293 151.57 43.8281 151.291C43.5298 151.013 43.1705 150.874 42.75 150.874C42.1193 150.874 41.6264 151.185 41.2713 151.807C40.9162 152.426 40.7386 153.303 40.7386 154.436C40.7386 155.192 40.8182 155.834 40.9773 156.362C41.1364 156.891 41.3651 157.293 41.6634 157.568C41.9645 157.844 42.3267 157.982 42.75 157.982ZM50.25 158.919C49.608 158.919 49.0611 158.744 48.6094 158.395C48.1577 158.043 47.8125 157.533 47.5739 156.865C47.3352 156.195 47.2159 155.385 47.2159 154.436C47.2159 153.493 47.3352 152.688 47.5739 152.02C47.8153 151.35 48.1619 150.838 48.6136 150.486C49.0682 150.131 49.6136 149.953 50.25 149.953C50.8864 149.953 51.4304 150.131 51.8821 150.486C52.3366 150.838 52.6832 151.35 52.9219 152.02C53.1634 152.688 53.2841 153.493 53.2841 154.436C53.2841 155.385 53.1648 156.195 52.9261 156.865C52.6875 157.533 52.3423 158.043 51.8906 158.395C51.4389 158.744 50.892 158.919 50.25 158.919ZM50.25 157.982C50.8864 157.982 51.3807 157.675 51.733 157.061C52.0852 156.448 52.2614 155.573 52.2614 154.436C52.2614 153.68 52.1804 153.037 52.0185 152.506C51.8594 151.975 51.6293 151.57 51.3281 151.291C51.0298 151.013 50.6705 150.874 50.25 150.874C49.6193 150.874 49.1264 151.185 48.7713 151.807C48.4162 152.426 48.2386 153.303 48.2386 154.436C48.2386 155.192 48.3182 155.834 48.4773 156.362C48.6364 156.891 48.8651 157.293 49.1634 157.568C49.4645 157.844 49.8267 157.982 50.25 157.982Z" fill="#717171"/>
<line x1="62.5" y1="154.8" x2="463.5" y2="154.8" stroke="#D6D6D6" stroke-linecap="round"/>
<path d="M50.25 194.119C49.608 194.119 49.0611 193.945 48.6094 193.595C48.1577 193.243 47.8125 192.733 47.5739 192.065C47.3352 191.395 47.2159 190.585 47.2159 189.636C47.2159 188.693 47.3352 187.888 47.5739 187.22C47.8153 186.55 48.1619 186.038 48.6136 185.686C49.0682 185.331 49.6136 185.153 50.25 185.153C50.8864 185.153 51.4304 185.331 51.8821 185.686C52.3366 186.038 52.6832 186.55 52.9219 187.22C53.1634 187.888 53.2841 188.693 53.2841 189.636C53.2841 190.585 53.1648 191.395 52.9261 192.065C52.6875 192.733 52.3423 193.243 51.8906 193.595C51.4389 193.945 50.892 194.119 50.25 194.119ZM50.25 193.182C50.8864 193.182 51.3807 192.875 51.733 192.261C52.0852 191.648 52.2614 190.773 52.2614 189.636C52.2614 188.881 52.1804 188.237 52.0185 187.706C51.8594 187.175 51.6293 186.77 51.3281 186.491C51.0298 186.213 50.6705 186.074 50.25 186.074C49.6193 186.074 49.1264 186.385 48.7713 187.007C48.4162 187.626 48.2386 188.503 48.2386 189.636C48.2386 190.392 48.3182 191.034 48.4773 191.562C48.6364 192.091 48.8651 192.493 49.1634 192.768C49.4645 193.044 49.8267 193.182 50.25 193.182Z" fill="#717171"/>
<line x1="62.5" y1="190" x2="463.5" y2="190" stroke="#D6D6D6" stroke-linecap="round"/>
<path d="M71.2013 202.773H72.4627L75.4286 210.017H75.5309L78.4968 202.773H79.7582V211.5H78.7695V204.869H78.6843L75.957 211.5H75.0025L72.2752 204.869H72.19V211.5H71.2013V202.773ZM84.3999 211.636C83.8089 211.636 83.2905 211.496 82.8445 211.214C82.4013 210.933 82.0547 210.54 81.8047 210.034C81.5575 209.528 81.4339 208.937 81.4339 208.261C81.4339 207.58 81.5575 206.984 81.8047 206.476C82.0547 205.967 82.4013 205.572 82.8445 205.291C83.2905 205.01 83.8089 204.869 84.3999 204.869C84.9908 204.869 85.5078 205.01 85.951 205.291C86.397 205.572 86.7436 205.967 86.9908 206.476C87.2408 206.984 87.3658 207.58 87.3658 208.261C87.3658 208.937 87.2408 209.528 86.9908 210.034C86.7436 210.54 86.397 210.933 85.951 211.214C85.5078 211.496 84.9908 211.636 84.3999 211.636ZM84.3999 210.733C84.8487 210.733 85.218 210.618 85.5078 210.388C85.7976 210.158 86.0121 209.855 86.1513 209.48C86.2905 209.105 86.3601 208.699 86.3601 208.261C86.3601 207.824 86.2905 207.416 86.1513 207.038C86.0121 206.661 85.7976 206.355 85.5078 206.122C85.218 205.889 84.8487 205.773 84.3999 205.773C83.951 205.773 83.5817 205.889 83.2919 206.122C83.0021 206.355 82.7876 206.661 82.6484 207.038C82.5092 207.416 82.4396 207.824 82.4396 208.261C82.4396 208.699 82.5092 209.105 82.6484 209.48C82.7876 209.855 83.0021 210.158 83.2919 210.388C83.5817 210.618 83.951 210.733 84.3999 210.733ZM89.9066 207.562V211.5H88.9009V204.955H89.8725V205.977H89.9577C90.1112 205.645 90.3441 205.378 90.6566 205.176C90.9691 204.972 91.3725 204.869 91.8668 204.869C92.31 204.869 92.6978 204.96 93.0302 205.142C93.3626 205.321 93.6211 205.594 93.8058 205.96C93.9904 206.324 94.0827 206.784 94.0827 207.341V211.5H93.0771V207.409C93.0771 206.895 92.9435 206.494 92.6765 206.207C92.4094 205.918 92.043 205.773 91.5771 205.773C91.256 205.773 90.9691 205.842 90.7163 205.982C90.4663 206.121 90.2688 206.324 90.1239 206.591C89.979 206.858 89.9066 207.182 89.9066 207.562Z" fill="#717171"/>
<path d="M135.147 203.71V202.773H141.693V203.71H138.949V211.5H137.892V203.71H135.147ZM146.422 208.824V204.955H147.428V211.5H146.422V210.392H146.354C146.2 210.724 145.962 211.007 145.638 211.24C145.314 211.47 144.905 211.585 144.411 211.585C144.001 211.585 143.638 211.496 143.32 211.317C143.001 211.135 142.751 210.862 142.57 210.499C142.388 210.132 142.297 209.67 142.297 209.114V204.955H143.303V209.045C143.303 209.523 143.436 209.903 143.703 210.188C143.973 210.472 144.317 210.614 144.734 210.614C144.984 210.614 145.239 210.55 145.497 210.422C145.759 210.294 145.977 210.098 146.153 209.834C146.332 209.57 146.422 209.233 146.422 208.824ZM152.014 211.636C151.383 211.636 150.839 211.497 150.382 211.219C149.927 210.938 149.576 210.545 149.329 210.043C149.085 209.537 148.963 208.949 148.963 208.278C148.963 207.608 149.085 207.017 149.329 206.506C149.576 205.991 149.92 205.591 150.36 205.304C150.804 205.014 151.321 204.869 151.912 204.869C152.253 204.869 152.589 204.926 152.922 205.04C153.254 205.153 153.557 205.338 153.829 205.594C154.102 205.847 154.319 206.182 154.481 206.599C154.643 207.017 154.724 207.531 154.724 208.142V208.568H149.679V207.699H153.701C153.701 207.33 153.628 207 153.48 206.71C153.335 206.42 153.128 206.192 152.858 206.024C152.591 205.857 152.275 205.773 151.912 205.773C151.511 205.773 151.164 205.872 150.872 206.071C150.582 206.267 150.359 206.523 150.203 206.838C150.047 207.153 149.968 207.491 149.968 207.852V208.432C149.968 208.926 150.054 209.345 150.224 209.689C150.397 210.03 150.637 210.29 150.944 210.469C151.251 210.645 151.608 210.733 152.014 210.733C152.278 210.733 152.517 210.696 152.73 210.622C152.946 210.545 153.132 210.432 153.288 210.281C153.444 210.128 153.565 209.937 153.65 209.71L154.622 209.983C154.52 210.312 154.348 210.602 154.106 210.852C153.865 211.099 153.566 211.293 153.211 211.432C152.856 211.568 152.457 211.636 152.014 211.636Z" fill="#717171"/>
<path d="M198.09 211.5L195.703 202.773H196.777L198.601 209.881H198.686L200.544 202.773H201.738L203.595 209.881H203.681L205.505 202.773H206.578L204.192 211.5H203.101L201.175 204.545H201.107L199.181 211.5H198.09ZM209.894 211.636C209.263 211.636 208.719 211.497 208.262 211.219C207.807 210.938 207.456 210.545 207.209 210.043C206.965 209.537 206.843 208.949 206.843 208.278C206.843 207.608 206.965 207.017 207.209 206.506C207.456 205.991 207.8 205.591 208.24 205.304C208.684 205.014 209.201 204.869 209.792 204.869C210.132 204.869 210.469 204.926 210.801 205.04C211.134 205.153 211.436 205.338 211.709 205.594C211.982 205.847 212.199 206.182 212.361 206.599C212.523 207.017 212.604 207.531 212.604 208.142V208.568H207.559V207.699H211.581C211.581 207.33 211.507 207 211.36 206.71C211.215 206.42 211.007 206.192 210.738 206.024C210.47 205.857 210.155 205.773 209.792 205.773C209.391 205.773 209.044 205.872 208.752 206.071C208.462 206.267 208.239 206.523 208.083 206.838C207.926 207.153 207.848 207.491 207.848 207.852V208.432C207.848 208.926 207.934 209.345 208.104 209.689C208.277 210.03 208.517 210.29 208.824 210.469C209.131 210.645 209.488 210.733 209.894 210.733C210.158 210.733 210.397 210.696 210.61 210.622C210.826 210.545 211.012 210.432 211.168 210.281C211.324 210.128 211.445 209.937 211.53 209.71L212.502 209.983C212.399 210.312 212.228 210.602 211.986 210.852C211.745 211.099 211.446 211.293 211.091 211.432C210.736 211.568 210.337 211.636 209.894 211.636ZM216.605 211.636C216.06 211.636 215.578 211.499 215.161 211.223C214.743 210.945 214.417 210.553 214.181 210.047C213.945 209.538 213.827 208.938 213.827 208.244C213.827 207.557 213.945 206.96 214.181 206.455C214.417 205.949 214.745 205.558 215.165 205.283C215.586 205.007 216.071 204.869 216.622 204.869C217.049 204.869 217.385 204.94 217.632 205.082C217.882 205.222 218.073 205.381 218.203 205.56C218.337 205.736 218.441 205.881 218.515 205.994H218.6V202.773H219.605V211.5H218.634V210.494H218.515C218.441 210.614 218.336 210.764 218.199 210.946C218.063 211.125 217.868 211.286 217.615 211.428C217.363 211.567 217.026 211.636 216.605 211.636ZM216.742 210.733C217.145 210.733 217.486 210.628 217.765 210.418C218.043 210.205 218.255 209.911 218.399 209.536C218.544 209.158 218.617 208.722 218.617 208.227C218.617 207.739 218.546 207.311 218.404 206.945C218.262 206.575 218.051 206.288 217.773 206.084C217.495 205.876 217.151 205.773 216.742 205.773C216.316 205.773 215.961 205.882 215.676 206.101C215.395 206.317 215.184 206.611 215.042 206.983C214.902 207.352 214.833 207.767 214.833 208.227C214.833 208.693 214.904 209.116 215.046 209.497C215.191 209.875 215.404 210.176 215.685 210.401C215.969 210.622 216.321 210.733 216.742 210.733Z" fill="#717171"/>
<path d="M260.818 203.71V202.773H267.363V203.71H264.619V211.5H263.562V203.71H260.818ZM269.864 207.562V211.5H268.858V202.773H269.864V205.977H269.949C270.102 205.639 270.332 205.371 270.639 205.172C270.949 204.97 271.361 204.869 271.875 204.869C272.321 204.869 272.712 204.959 273.047 205.138C273.382 205.314 273.642 205.585 273.827 205.952C274.014 206.315 274.108 206.778 274.108 207.341V211.5H273.102V207.409C273.102 206.889 272.967 206.487 272.697 206.203C272.43 205.916 272.06 205.773 271.585 205.773C271.256 205.773 270.96 205.842 270.699 205.982C270.44 206.121 270.236 206.324 270.085 206.591C269.938 206.858 269.864 207.182 269.864 207.562ZM280.073 208.824V204.955H281.078V211.5H280.073V210.392H280.005C279.851 210.724 279.613 211.007 279.289 211.24C278.965 211.47 278.556 211.585 278.061 211.585C277.652 211.585 277.289 211.496 276.971 211.317C276.652 211.135 276.402 210.862 276.221 210.499C276.039 210.132 275.948 209.67 275.948 209.114V204.955H276.953V209.045C276.953 209.523 277.087 209.903 277.354 210.188C277.624 210.472 277.968 210.614 278.385 210.614C278.635 210.614 278.89 210.55 279.148 210.422C279.409 210.294 279.628 210.098 279.804 209.834C279.983 209.57 280.073 209.233 280.073 208.824Z" fill="#717171"/>
<path d="M323.105 211.5V202.773H328.338V203.71H324.162V206.659H327.946V207.597H324.162V211.5H323.105ZM329.941 211.5V204.955H330.913V205.943H330.981C331.101 205.619 331.316 205.357 331.629 205.155C331.941 204.953 332.294 204.852 332.686 204.852C332.76 204.852 332.852 204.854 332.963 204.857C333.074 204.859 333.157 204.864 333.214 204.869V205.892C333.18 205.884 333.102 205.871 332.98 205.854C332.86 205.834 332.734 205.824 332.601 205.824C332.282 205.824 331.998 205.891 331.748 206.024C331.501 206.155 331.305 206.337 331.16 206.57C331.018 206.8 330.947 207.062 330.947 207.358V211.5H329.941ZM334.406 211.5V204.955H335.412V211.5H334.406ZM334.918 203.864C334.722 203.864 334.553 203.797 334.411 203.663C334.271 203.53 334.202 203.369 334.202 203.182C334.202 202.994 334.271 202.834 334.411 202.7C334.553 202.567 334.722 202.5 334.918 202.5C335.114 202.5 335.281 202.567 335.42 202.7C335.563 202.834 335.634 202.994 335.634 203.182C335.634 203.369 335.563 203.53 335.42 203.663C335.281 203.797 335.114 203.864 334.918 203.864Z" fill="#717171"/>
<path d="M381.723 204.955C381.671 204.523 381.464 204.188 381.1 203.949C380.737 203.71 380.291 203.591 379.762 203.591C379.376 203.591 379.038 203.653 378.748 203.778C378.461 203.903 378.237 204.075 378.075 204.294C377.916 204.513 377.836 204.761 377.836 205.04C377.836 205.273 377.892 205.473 378.002 205.641C378.116 205.805 378.261 205.943 378.437 206.054C378.613 206.162 378.798 206.251 378.991 206.322C379.184 206.391 379.362 206.446 379.524 206.489L380.41 206.727C380.637 206.787 380.89 206.869 381.169 206.974C381.45 207.08 381.718 207.223 381.974 207.405C382.233 207.584 382.446 207.814 382.613 208.095C382.781 208.376 382.865 208.722 382.865 209.131C382.865 209.602 382.741 210.028 382.494 210.409C382.25 210.79 381.892 211.092 381.42 211.317C380.951 211.541 380.382 211.653 379.711 211.653C379.086 211.653 378.545 211.553 378.088 211.351C377.633 211.149 377.275 210.868 377.014 210.507C376.755 210.146 376.609 209.727 376.575 209.25H377.666C377.694 209.58 377.805 209.852 377.998 210.068C378.194 210.281 378.441 210.44 378.74 210.545C379.041 210.648 379.365 210.699 379.711 210.699C380.115 210.699 380.477 210.634 380.798 210.503C381.119 210.369 381.373 210.185 381.561 209.949C381.748 209.71 381.842 209.432 381.842 209.114C381.842 208.824 381.761 208.588 381.599 208.406C381.437 208.224 381.224 208.077 380.96 207.963C380.696 207.849 380.41 207.75 380.103 207.665L379.029 207.358C378.348 207.162 377.808 206.882 377.41 206.518C377.012 206.155 376.814 205.679 376.814 205.091C376.814 204.602 376.946 204.176 377.21 203.812C377.477 203.446 377.835 203.162 378.284 202.96C378.735 202.756 379.24 202.653 379.796 202.653C380.359 202.653 380.859 202.754 381.296 202.956C381.734 203.155 382.081 203.428 382.336 203.774C382.595 204.121 382.731 204.514 382.745 204.955H381.723ZM386.392 211.653C385.977 211.653 385.601 211.575 385.263 211.419C384.925 211.26 384.656 211.031 384.457 210.733C384.258 210.432 384.159 210.068 384.159 209.642C384.159 209.267 384.233 208.963 384.381 208.73C384.528 208.494 384.726 208.31 384.973 208.176C385.22 208.043 385.493 207.943 385.791 207.878C386.092 207.81 386.395 207.756 386.699 207.716C387.097 207.665 387.419 207.626 387.666 207.601C387.916 207.572 388.098 207.526 388.212 207.46C388.328 207.395 388.386 207.281 388.386 207.119V207.085C388.386 206.665 388.271 206.338 388.041 206.105C387.814 205.872 387.469 205.756 387.006 205.756C386.526 205.756 386.149 205.861 385.876 206.071C385.604 206.281 385.412 206.506 385.301 206.744L384.347 206.403C384.517 206.006 384.744 205.696 385.028 205.474C385.315 205.25 385.628 205.094 385.966 205.006C386.307 204.915 386.642 204.869 386.972 204.869C387.182 204.869 387.423 204.895 387.696 204.946C387.972 204.994 388.237 205.095 388.493 205.249C388.751 205.402 388.966 205.634 389.136 205.943C389.307 206.253 389.392 206.668 389.392 207.188V211.5H388.386V210.614H388.335C388.267 210.756 388.153 210.908 387.994 211.07C387.835 211.232 387.624 211.369 387.359 211.483C387.095 211.597 386.773 211.653 386.392 211.653ZM386.545 210.75C386.943 210.75 387.278 210.672 387.551 210.516C387.827 210.359 388.034 210.158 388.173 209.911C388.315 209.663 388.386 209.403 388.386 209.131V208.21C388.344 208.261 388.25 208.308 388.105 208.351C387.963 208.391 387.798 208.426 387.611 208.457C387.426 208.486 387.246 208.511 387.07 208.534C386.896 208.554 386.756 208.571 386.648 208.585C386.386 208.619 386.142 208.675 385.915 208.751C385.69 208.825 385.508 208.937 385.369 209.088C385.233 209.236 385.165 209.437 385.165 209.693C385.165 210.043 385.294 210.307 385.553 210.486C385.814 210.662 386.145 210.75 386.545 210.75ZM394.074 204.955V205.807H390.682V204.955H394.074ZM391.671 203.386H392.676V209.625C392.676 209.909 392.718 210.122 392.8 210.264C392.885 210.403 392.993 210.497 393.124 210.545C393.257 210.591 393.398 210.614 393.546 210.614C393.657 210.614 393.747 210.608 393.818 210.597C393.89 210.582 393.946 210.571 393.989 210.562L394.193 211.466C394.125 211.491 394.03 211.517 393.908 211.543C393.786 211.571 393.631 211.585 393.443 211.585C393.159 211.585 392.881 211.524 392.608 211.402C392.338 211.28 392.114 211.094 391.935 210.844C391.759 210.594 391.671 210.278 391.671 209.898V203.386Z" fill="#717171"/>
<path d="M440.185 204.955C440.134 204.523 439.926 204.188 439.563 203.949C439.199 203.71 438.753 203.591 438.225 203.591C437.838 203.591 437.5 203.653 437.211 203.778C436.924 203.903 436.699 204.075 436.537 204.294C436.378 204.513 436.299 204.761 436.299 205.04C436.299 205.273 436.354 205.473 436.465 205.641C436.578 205.805 436.723 205.943 436.9 206.054C437.076 206.162 437.26 206.251 437.453 206.322C437.647 206.391 437.824 206.446 437.986 206.489L438.873 206.727C439.1 206.787 439.353 206.869 439.631 206.974C439.912 207.08 440.181 207.223 440.436 207.405C440.695 207.584 440.908 207.814 441.076 208.095C441.243 208.376 441.327 208.722 441.327 209.131C441.327 209.602 441.203 210.028 440.956 210.409C440.712 210.79 440.354 211.092 439.882 211.317C439.414 211.541 438.844 211.653 438.174 211.653C437.549 211.653 437.007 211.553 436.55 211.351C436.096 211.149 435.738 210.868 435.476 210.507C435.218 210.146 435.071 209.727 435.037 209.25H436.128C436.157 209.58 436.267 209.852 436.461 210.068C436.657 210.281 436.904 210.44 437.202 210.545C437.503 210.648 437.827 210.699 438.174 210.699C438.577 210.699 438.939 210.634 439.26 210.503C439.581 210.369 439.836 210.185 440.023 209.949C440.211 209.71 440.304 209.432 440.304 209.114C440.304 208.824 440.223 208.588 440.061 208.406C439.9 208.224 439.686 208.077 439.422 207.963C439.158 207.849 438.873 207.75 438.566 207.665L437.492 207.358C436.81 207.162 436.27 206.882 435.873 206.518C435.475 206.155 435.276 205.679 435.276 205.091C435.276 204.602 435.408 204.176 435.672 203.812C435.939 203.446 436.297 203.162 436.746 202.96C437.198 202.756 437.702 202.653 438.259 202.653C438.821 202.653 439.321 202.754 439.759 202.956C440.196 203.155 440.543 203.428 440.799 203.774C441.057 204.121 441.194 204.514 441.208 204.955H440.185ZM447.053 208.824V204.955H448.059V211.5H447.053V210.392H446.985C446.832 210.724 446.593 211.007 446.269 211.24C445.945 211.47 445.536 211.585 445.042 211.585C444.633 211.585 444.269 211.496 443.951 211.317C443.633 211.135 443.383 210.862 443.201 210.499C443.019 210.132 442.928 209.67 442.928 209.114V204.955H443.934V209.045C443.934 209.523 444.067 209.903 444.335 210.188C444.604 210.472 444.948 210.614 445.366 210.614C445.616 210.614 445.87 210.55 446.129 210.422C446.39 210.294 446.609 210.098 446.785 209.834C446.964 209.57 447.053 209.233 447.053 208.824ZM450.907 207.562V211.5H449.901V204.955H450.873V205.977H450.958C451.111 205.645 451.344 205.378 451.657 205.176C451.969 204.972 452.373 204.869 452.867 204.869C453.31 204.869 453.698 204.96 454.03 205.142C454.363 205.321 454.621 205.594 454.806 205.96C454.99 206.324 455.083 206.784 455.083 207.341V211.5H454.077V207.409C454.077 206.895 453.944 206.494 453.676 206.207C453.409 205.918 453.043 205.773 452.577 205.773C452.256 205.773 451.969 205.842 451.716 205.982C451.466 206.121 451.269 206.324 451.124 206.591C450.979 206.858 450.907 207.182 450.907 207.562Z" fill="#717171"/>
<path d="M235.757 235.5H232.931V226.773H235.846C236.701 226.773 237.436 226.947 238.049 227.297C238.663 227.643 239.133 228.142 239.46 228.793C239.789 229.44 239.954 230.217 239.954 231.124C239.954 232.033 239.788 232.814 239.456 233.467C239.126 234.121 238.649 234.624 238.024 234.976C237.399 235.325 236.643 235.5 235.757 235.5ZM234.248 234.349H235.684C236.349 234.349 236.902 234.224 237.342 233.974C237.782 233.722 238.112 233.357 238.331 232.879C238.549 232.399 238.659 231.814 238.659 231.124C238.659 230.439 238.549 229.858 238.331 229.381C238.115 228.903 237.792 228.541 237.363 228.294C236.934 228.047 236.402 227.923 235.765 227.923H234.248V234.349ZM243.394 235.645C242.979 235.645 242.604 235.568 242.269 235.415C241.934 235.259 241.668 235.033 241.472 234.737C241.279 234.442 241.183 234.08 241.183 233.651C241.183 233.281 241.254 232.977 241.396 232.739C241.538 232.5 241.729 232.311 241.971 232.172C242.212 232.033 242.482 231.928 242.781 231.857C243.079 231.786 243.383 231.732 243.692 231.695C244.085 231.649 244.403 231.612 244.647 231.584C244.891 231.553 245.069 231.503 245.18 231.435C245.29 231.366 245.346 231.256 245.346 231.102V231.072C245.346 230.7 245.241 230.412 245.031 230.207C244.823 230.003 244.513 229.901 244.102 229.901C243.673 229.901 243.335 229.996 243.087 230.186C242.843 230.374 242.674 230.582 242.58 230.812L241.383 230.54C241.525 230.142 241.732 229.821 242.005 229.577C242.281 229.33 242.597 229.151 242.955 229.04C243.313 228.926 243.69 228.869 244.085 228.869C244.346 228.869 244.623 228.901 244.915 228.963C245.211 229.023 245.487 229.134 245.742 229.295C246.001 229.457 246.212 229.689 246.377 229.99C246.542 230.288 246.624 230.676 246.624 231.153V235.5H245.38V234.605H245.329C245.246 234.77 245.123 234.932 244.958 235.091C244.793 235.25 244.582 235.382 244.323 235.487C244.065 235.592 243.755 235.645 243.394 235.645ZM243.671 234.622C244.023 234.622 244.325 234.553 244.575 234.413C244.827 234.274 245.019 234.092 245.15 233.868C245.283 233.641 245.35 233.398 245.35 233.139V232.295C245.305 232.341 245.217 232.384 245.086 232.423C244.958 232.46 244.812 232.493 244.647 232.521C244.482 232.547 244.322 232.571 244.165 232.594C244.009 232.614 243.879 232.631 243.773 232.645C243.526 232.676 243.3 232.729 243.096 232.803C242.894 232.876 242.732 232.983 242.61 233.122C242.491 233.259 242.431 233.44 242.431 233.668C242.431 233.983 242.548 234.222 242.781 234.384C243.013 234.543 243.31 234.622 243.671 234.622ZM248.892 237.955C248.702 237.955 248.529 237.939 248.373 237.908C248.216 237.879 248.1 237.848 248.023 237.814L248.33 236.77C248.563 236.832 248.77 236.859 248.952 236.851C249.134 236.842 249.294 236.774 249.434 236.646C249.576 236.518 249.701 236.31 249.809 236.02L249.966 235.585L247.571 228.955H248.935L250.593 234.034H250.661L252.319 228.955H253.686L250.989 236.374C250.864 236.714 250.705 237.003 250.512 237.239C250.319 237.477 250.088 237.656 249.821 237.776C249.554 237.895 249.245 237.955 248.892 237.955Z" fill="#717171"/>
<g style="mix-blend-mode:multiply" opacity="0.1">
<path d="M71.1105 81.4376L62 84.6147V190.5H464V46.021L455.459 51.2978H446.348L442.078 56.2387H436.384C434.865 57.0622 431.715 58.7092 431.259 58.7092C430.804 58.7092 427.843 59.6974 426.419 60.1915L414.177 61.6738L407.06 63.6502L395.671 61.6738L389.693 60.1915L381.152 63.6502H372.326L364.924 60.1915C362.077 59.6974 356.269 58.7092 355.813 58.7092C355.358 58.7092 351.637 57.721 349.834 57.2269H345.279L334.46 58.7092L325.065 60.1915L320.795 63.6502L307.983 65.1324L301.435 66.6147L294.033 69.0852L286.915 75.0143H283.783L275.242 73.5321L266.986 69.0852L259.868 66.6147H255.598L248.195 65.1324L237.661 66.6147H227.697L217.732 69.0852L207.768 72.0498L200.365 75.0143L192.394 76.4966L181.575 75.0143L173.034 76.4966L164.493 77.9789L156.521 76.4966L145.703 79.9553L136.592 77.9789L127.482 79.9553H118.656L109.261 81.4376H99.5807L89.9009 82.9199L80.5057 79.9553L71.1105 81.4376Z" fill="url(#paint0_linear_2019_19661)"/>
</g>
<path d="M62 84.6148L71.1105 81.4376L80.5057 79.9553L89.9008 82.9199L99.5807 81.4376H109.261L118.656 79.9553H127.482L136.592 77.9789L145.703 79.9553L156.521 76.4966L164.493 77.9789L173.034 76.4966L181.575 75.0143L192.394 76.4966L200.365 75.0143L207.768 72.0498L217.732 69.0852L227.697 66.6147H237.661L248.195 65.1324L255.598 66.6147H259.868L266.986 69.0852L275.242 73.5321L283.783 75.0143H286.915L294.033 69.0852L301.435 66.6147L307.983 65.1324L320.795 63.6502L325.065 60.1915L334.46 58.7092L345.279 57.2269H349.834C351.637 57.721 355.357 58.7092 355.813 58.7092C356.269 58.7092 362.076 59.6974 364.924 60.1915L372.326 63.6502H381.152L389.693 60.1915L395.671 61.6738L407.059 63.6502L414.177 61.6738L426.419 60.1915C427.843 59.6974 430.804 58.7092 431.259 58.7092C431.715 58.7092 434.865 57.0622 436.384 56.2387H442.078L446.348 51.2978H455.459L464 46.021" stroke="#08AA3B" stroke-width="2" stroke-linecap="round" stroke-linejoin="round"/>
<defs>
<linearGradient id="paint0_linear_2019_19661" x1="263" y1="46.021" x2="263" y2="184.068" gradientUnits="userSpaceOnUse">
<stop stop-color="#08A93B"/>
<stop offset="1" stop-color="#08A93B" stop-opacity="0"/>
</linearGradient>
</defs>
</svg>
