<svg width="254" height="220" viewBox="0 0 254 220" fill="none" xmlns="http://www.w3.org/2000/svg">
<g opacity="0.25">
<path d="M58.75 -42.2749C64.5948 -45.6494 71.7538 -45.7549 77.6807 -42.5913L78.25 -42.2749L126.75 -14.2729C132.783 -10.7896 136.5 -4.35188 136.5 2.61475V58.6177C136.5 65.3665 133.012 71.6185 127.309 75.1694L126.75 75.5044L78.25 103.506C72.4052 106.881 65.2462 106.986 59.3193 103.823L58.75 103.506L10.25 75.5044C4.21689 72.0211 0.500152 65.5841 0.5 58.6177V2.61475C0.5 -4.13426 3.98815 -10.3869 9.69141 -13.938L10.25 -14.2729L58.75 -42.2749ZM78.75 -27.3218C72.6055 -30.8692 65.0794 -30.9797 58.8486 -27.6538L58.25 -27.3218L23.4502 -7.22998C17.1075 -3.56802 13.2002 3.20001 13.2002 10.5239V50.7075C13.2002 57.8025 16.8667 64.3757 22.8623 68.1089L23.4502 68.4614L58.25 88.5532C64.3946 92.1007 71.9205 92.2112 78.1514 88.8853L78.75 88.5532L113.55 68.4614C119.893 64.7994 123.8 58.0315 123.8 50.7075V10.5239C123.8 3.4289 120.133 -3.14428 114.138 -6.87744L113.55 -7.22998L78.75 -27.3218ZM60.75 -22.9907C65.3958 -25.673 71.0858 -25.7572 75.7969 -23.2427L76.25 -22.9907L111.05 -2.8999C115.846 -0.131101 118.8 4.98633 118.8 10.5239V50.7075C118.8 56.0721 116.028 61.0421 111.494 63.8647L111.05 64.1313L76.25 84.2231C71.6043 86.9053 65.9141 86.9886 61.2031 84.4741L60.75 84.2231L25.9502 64.1313C21.1545 61.3625 18.2002 56.2451 18.2002 50.7075V10.5239C18.2002 5.15932 20.9725 0.189306 25.5059 -2.6333L25.9502 -2.89893L60.75 -22.9907Z" fill="#F0E4FF" stroke="#9747FF"/>
<path d="M190.716 123.698L194.213 125.715V125.716L192.963 127.881L194.712 128.891C195.288 129.223 195.808 129.625 196.265 130.083L198.032 128.315C199.273 129.556 200.166 131.103 200.62 132.798H200.621L198.206 133.445C198.373 134.069 198.462 134.721 198.462 135.386V137.405H200.962V141.443H198.462V145.481H200.962V149.518H198.462V153.556H200.962V157.594H198.462V161.631H200.962V165.669H198.462V169.708H200.962V173.745H198.462V177.783H200.962V181.821H198.462V183.839C198.462 184.504 198.373 185.156 198.206 185.781L200.62 186.426C200.166 188.121 199.273 189.669 198.032 190.91L196.265 189.143C195.865 189.543 195.416 189.901 194.925 190.207L194.712 190.334L192.963 191.344L194.213 193.509L190.716 195.527L189.467 193.363L185.97 195.381L187.22 197.546L183.722 199.565L182.473 197.401L178.976 199.419L180.226 201.584L176.729 203.603L175.479 201.438L171.982 203.458L173.231 205.622L169.735 207.641L168.485 205.476L164.989 207.495L166.239 209.66L162.741 211.678L161.492 209.514L157.995 211.533L159.245 213.698L155.748 215.716L154.498 213.551L152.75 214.561C152.174 214.893 151.566 215.143 150.941 215.31L151.588 217.725C149.893 218.179 148.106 218.179 146.411 217.725L147.059 215.31C146.434 215.143 145.826 214.893 145.25 214.561L143.502 213.551L142.252 215.716H142.251L138.754 213.698L140.005 211.533L136.508 209.514L135.258 211.678L131.76 209.66L133.011 207.495L129.515 205.476L128.264 207.641L124.768 205.622L126.018 203.458L122.521 201.438L121.27 203.603L117.773 201.584H117.774L119.024 199.419L115.527 197.401L114.277 199.565L110.779 197.546H110.78L112.03 195.381L108.533 193.363L107.283 195.527L103.786 193.509L105.037 191.344L103.288 190.334L103.075 190.207C102.584 189.901 102.135 189.543 101.735 189.143L99.9668 190.91C98.7262 189.669 97.8329 188.121 97.3789 186.426L99.7939 185.781C99.6475 185.234 99.5621 184.667 99.543 184.088L99.5381 183.839V181.821H97.0381V177.783H99.5381V173.745H97.0381V169.708H99.5381V165.669H97.0381V161.631H99.5381V157.594H97.0381V153.556H99.5381V149.518H97.0381V145.481H99.5381V141.443H97.0381V137.405H99.5381V135.386C99.5381 134.721 99.6266 134.069 99.7939 133.445L97.3789 132.798C97.8331 131.104 98.7262 129.556 99.9668 128.315L101.735 130.083C102.135 129.682 102.584 129.325 103.075 129.019L103.288 128.891L105.037 127.881L103.787 125.716L103.786 125.715L107.283 123.698L108.533 125.863L112.03 123.844L110.78 121.679L110.779 121.678L114.277 119.66L115.527 121.825L119.024 119.806L117.774 117.641L117.773 117.64L121.27 115.622L121.271 115.623L122.521 117.788L126.018 115.768L124.768 113.603L128.264 111.583L128.265 111.584L129.515 113.75L133.011 111.731L131.761 109.566L131.76 109.565L135.258 107.546L136.508 109.711L140.005 107.693L138.755 105.528L138.754 105.527L142.251 103.508L142.252 103.509L143.502 105.674L145.25 104.665C145.826 104.332 146.434 104.083 147.059 103.916L146.412 101.5L146.411 101.5C148.106 101.045 149.893 101.046 151.588 101.5V101.5L150.941 103.916C151.488 104.062 152.022 104.271 152.532 104.543L152.75 104.665L154.498 105.674L155.748 103.509V103.508L159.245 105.527V105.528L157.995 107.693L161.492 109.711L162.741 107.546L166.239 109.565V109.566L164.989 111.731L168.485 113.75L169.735 111.584V111.583L173.231 113.603H173.232L171.982 115.768L175.479 117.788L176.729 115.623V115.622L180.226 117.64V117.641L178.976 119.806L182.473 121.825L183.722 119.66L187.22 121.678V121.679L185.97 123.844L189.467 125.863L190.716 123.698Z" fill="#F0E4FF" stroke="#9747FF" stroke-width="5" stroke-dasharray="4 4"/>
<path d="M222.446 6.74463C223.463 6.4721 224.536 6.47226 225.553 6.74463V6.74561L225.165 8.19385C225.446 8.26913 225.721 8.37248 225.987 8.50342L226.25 8.64404L227.915 9.60498L228.664 8.30615L231.995 10.229L231.245 11.5278L234.575 13.4507L235.325 12.1519V12.1509L238.654 14.0737L237.905 15.3735L241.235 17.2954L241.985 15.9966L245.315 17.9185V17.9194L244.565 19.2183L246.23 20.1802C246.576 20.3797 246.889 20.6207 247.163 20.895L248.223 19.8345C248.967 20.5787 249.504 21.5063 249.776 22.5229V22.5239L248.327 22.9126C248.428 23.2872 248.48 23.6779 248.48 24.0767V25.9995H249.98V29.8452H248.48V33.6899H249.98V37.5356H248.48V41.3804H249.98V45.2261H248.48V47.1489C248.48 47.5477 248.428 47.9384 248.327 48.313L249.776 48.7017C249.504 49.7184 248.967 50.6457 248.223 51.3901L247.163 50.3306C246.957 50.5363 246.73 50.7234 246.483 50.8882L246.23 51.0454L244.565 52.0073L245.315 53.3062L241.985 55.229L241.235 53.9302L237.905 55.8521L238.654 57.1509L235.325 59.0737L234.575 57.7749L231.245 59.6978L231.995 60.9966L228.664 62.9185L227.915 61.6206L226.25 62.5815C225.905 62.781 225.54 62.9313 225.165 63.0317L225.553 64.48C224.536 64.7524 223.463 64.7526 222.446 64.48L222.835 63.0317C222.46 62.9313 222.095 62.781 221.75 62.5815L220.085 61.6206L219.335 62.9185L216.005 60.9966L216.755 59.6978L213.425 57.7749L212.675 59.0737H212.674L209.345 57.1509L210.095 55.8521L206.765 53.9302L206.015 55.229L202.684 53.3062H202.685L203.435 52.0073L201.77 51.0454L201.517 50.8882C201.27 50.7234 201.043 50.5363 200.837 50.3306L199.776 51.3901C199.032 50.6458 198.495 49.7183 198.223 48.7017L199.673 48.313C199.598 48.0318 199.549 47.7417 199.529 47.4458L199.52 47.1489V45.2261H198.02V41.3804H199.52V37.5356H198.02V33.6899H199.52V29.8452H198.02V25.9995H199.52V24.0767C199.52 23.6779 199.572 23.2872 199.673 22.9126L198.224 22.5239L198.223 22.5229C198.495 21.5065 199.032 20.5787 199.776 19.8345L200.837 20.895C201.043 20.6893 201.27 20.5022 201.517 20.3374L201.77 20.1802L203.435 19.2183L202.685 17.9194L202.684 17.9185L206.015 15.9966L206.765 17.2954L210.095 15.3735L209.345 14.0737L212.674 12.1509L212.675 12.1519L213.425 13.4507L216.755 11.5278L216.005 10.229L219.335 8.30615L220.085 9.60498L221.75 8.64404C222.095 8.44459 222.46 8.29424 222.835 8.19385L222.447 6.74561L222.446 6.74463Z" fill="#F0E4FF" stroke="#9747FF" stroke-width="3" stroke-dasharray="4 4"/>
</g>
</svg>
