<svg width="28" height="28" viewBox="0 0 28 28" fill="none" xmlns="http://www.w3.org/2000/svg">
<path d="M10.687 12.6813C10.5703 12.6697 10.4303 12.6697 10.302 12.6813C7.52531 12.588 5.32031 10.313 5.32031 7.51301C5.32031 4.65467 7.63031 2.33301 10.5003 2.33301C13.3586 2.33301 15.6803 4.65467 15.6803 7.51301C15.6686 10.313 13.4636 12.588 10.687 12.6813Z" stroke="black" stroke-linecap="round" stroke-linejoin="round"/>
<path d="M19.1448 4.66699C21.4082 4.66699 23.2282 6.49866 23.2282 8.75033C23.2282 10.9553 21.4782 12.752 19.2965 12.8337C19.2032 12.822 19.0982 12.822 18.9932 12.8337" stroke="black" stroke-linecap="round" stroke-linejoin="round"/>
<path d="M4.85285 16.987C2.02952 18.877 2.02952 21.957 4.85285 23.8353C8.06119 25.982 13.3229 25.982 16.5312 23.8353C19.3545 21.9453 19.3545 18.8653 16.5312 16.987C13.3345 14.852 8.07285 14.852 4.85285 16.987Z" stroke="black" stroke-linecap="round" stroke-linejoin="round"/>
<path d="M21.3965 23.333C22.2365 23.158 23.0298 22.8197 23.6832 22.318C25.5032 20.953 25.5032 18.7013 23.6832 17.3363C23.0415 16.8463 22.2598 16.5197 21.4315 16.333" stroke="black" stroke-linecap="round" stroke-linejoin="round"/>
</svg>
