<svg width="210" height="209" viewBox="0 0 210 209" fill="none" xmlns="http://www.w3.org/2000/svg">
<rect x="0.818359" width="208.363" height="208.363" rx="104.182" fill="#F5FCF6"/>
<path opacity="0.2" d="M56.8636 92.1476H80.9318V144.295H56.8636C55.7998 144.295 54.7795 143.872 54.0272 143.12C53.2749 142.368 52.8523 141.348 52.8523 140.284V96.1589C52.8523 95.095 53.2749 94.0747 54.0272 93.3225C54.7795 92.5702 55.7998 92.1476 56.8636 92.1476Z" fill="#03A574"/>
<path d="M56.8636 92.1476H80.9318V144.295H56.8636C55.7998 144.295 54.7795 143.872 54.0272 143.12C53.2749 142.368 52.8523 141.348 52.8523 140.284V96.1589C52.8523 95.095 53.2749 94.0747 54.0272 93.3225C54.7795 92.5702 55.7998 92.1476 56.8636 92.1476Z" stroke="#03A574" stroke-width="4" stroke-linecap="round" stroke-linejoin="round"/>
<path d="M80.9319 92.1476L100.989 52.034C105.244 52.034 109.325 53.7245 112.334 56.7336C115.344 59.7427 117.034 63.8239 117.034 68.0795V80.1135H149.125C150.263 80.1138 151.388 80.3563 152.425 80.8247C153.462 81.2932 154.388 81.9769 155.14 82.8305C155.893 83.6842 156.455 84.6882 156.79 85.7758C157.125 86.8635 157.225 88.0099 157.082 89.139L151.065 137.275C150.821 139.214 149.878 140.996 148.413 142.289C146.948 143.581 145.062 144.295 143.108 144.295H80.9319" stroke="#03A574" stroke-width="4" stroke-linecap="round" stroke-linejoin="round"/>
</svg>
