<svg width="20" height="21" viewBox="0 0 20 21" fill="none" xmlns="http://www.w3.org/2000/svg">
<path d="M18.3333 5.50008V7.51675C18.3333 8.83342 17.4999 9.66675 16.1832 9.66675H13.3333V3.84175C13.3333 2.91675 14.0916 2.16675 15.0166 2.16675C15.9249 2.17508 16.7583 2.54175 17.3583 3.14175C17.9583 3.75008 18.3333 4.58341 18.3333 5.50008Z" stroke="black" stroke-miterlimit="10" stroke-linecap="round" stroke-linejoin="round"/>
<path d="M1.66675 6.33341V18.0001C1.66675 18.6917 2.45006 19.0834 3.00006 18.6667L4.42508 17.6001C4.75841 17.3501 5.22509 17.3834 5.52509 17.6834L6.9084 19.0751C7.2334 19.4001 7.76677 19.4001 8.09177 19.0751L9.49176 17.6751C9.78343 17.3834 10.2501 17.3501 10.5751 17.6001L12.0001 18.6667C12.5501 19.0751 13.3334 18.6834 13.3334 18.0001V3.83341C13.3334 2.91675 14.0834 2.16675 15.0001 2.16675H5.83341H5.00008C2.50008 2.16675 1.66675 3.65841 1.66675 5.50008V6.33341Z" stroke="black" stroke-miterlimit="10" stroke-linecap="round" stroke-linejoin="round"/>
<path d="M5 8H10" stroke="black" stroke-linecap="round" stroke-linejoin="round"/>
<path d="M5.625 11.3333H9.375" stroke="black" stroke-linecap="round" stroke-linejoin="round"/>
</svg>
