<svg width="29" height="28" viewBox="0 0 29 28" fill="none" xmlns="http://www.w3.org/2000/svg">
<path d="M14.3333 13.9997C17.555 13.9997 20.1667 11.388 20.1667 8.16634C20.1667 4.94468 17.555 2.33301 14.3333 2.33301C11.1117 2.33301 8.5 4.94468 8.5 8.16634C8.5 11.388 11.1117 13.9997 14.3333 13.9997Z" stroke="#08AA3B" stroke-linecap="round" stroke-linejoin="round"/>
<path d="M4.31152 25.6667C4.31152 21.1517 8.80319 17.5 14.3332 17.5C15.4532 17.5 16.5382 17.6517 17.5532 17.9317" stroke="#08AA3B" stroke-linecap="round" stroke-linejoin="round"/>
<path d="M25.9993 20.9997C25.9993 21.8747 25.7544 22.703 25.3227 23.403C25.0777 23.823 24.7627 24.1963 24.401 24.4997C23.5844 25.2347 22.511 25.6663 21.3327 25.6663C19.6293 25.6663 18.1477 24.7563 17.3427 23.403C16.911 22.703 16.666 21.8747 16.666 20.9997C16.666 19.5297 17.3427 18.2113 18.416 17.3597C19.221 16.718 20.236 16.333 21.3327 16.333C23.911 16.333 25.9993 18.4213 25.9993 20.9997Z" stroke="#08AA3B" stroke-miterlimit="10" stroke-linecap="round" stroke-linejoin="round"/>
<path d="M19.5127 20.9998L20.6677 22.1547L23.1527 19.8564" stroke="#08AA3B" stroke-linecap="round" stroke-linejoin="round"/>
</svg>
