<svg width="29" height="28" viewBox="0 0 29 28" fill="none" xmlns="http://www.w3.org/2000/svg">
<path d="M14.6673 13.9997C17.889 13.9997 20.5007 11.388 20.5007 8.16634C20.5007 4.94468 17.889 2.33301 14.6673 2.33301C11.4457 2.33301 8.83398 4.94468 8.83398 8.16634C8.83398 11.388 11.4457 13.9997 14.6673 13.9997Z" stroke="#0955FB" stroke-linecap="round" stroke-linejoin="round"/>
<path d="M4.64551 25.6667C4.64551 21.1517 9.13717 17.5 14.6672 17.5C15.7872 17.5 16.8722 17.6517 17.8872 17.9317" stroke="#0955FB" stroke-linecap="round" stroke-linejoin="round"/>
<path d="M26.3333 20.9997C26.3333 21.373 26.2867 21.7347 26.1933 22.0847C26.0883 22.5513 25.9017 23.0063 25.6567 23.403C24.8517 24.7563 23.37 25.6663 21.6667 25.6663C20.465 25.6663 19.38 25.2113 18.5633 24.4646C18.2133 24.1613 17.91 23.7997 17.6767 23.403C17.245 22.703 17 21.8747 17 20.9997C17 19.7397 17.5017 18.5847 18.3183 17.7447C19.17 16.8697 20.36 16.333 21.6667 16.333C23.0433 16.333 24.2917 16.928 25.1317 17.8847C25.8783 18.713 26.3333 19.8097 26.3333 20.9997Z" stroke="#0955FB" stroke-miterlimit="10" stroke-linecap="round" stroke-linejoin="round"/>
<path d="M23.4054 20.9766H19.9287" stroke="#0955FB" stroke-miterlimit="10" stroke-linecap="round" stroke-linejoin="round"/>
<path d="M21.667 19.2734V22.7618" stroke="#0955FB" stroke-miterlimit="10" stroke-linecap="round" stroke-linejoin="round"/>
</svg>
