<svg width="202" height="103" viewBox="0 0 202 103" fill="none" xmlns="http://www.w3.org/2000/svg">
<path opacity="0.5" fill-rule="evenodd" clip-rule="evenodd" d="M51.3093 0.612793L52.9279 1.51622L76.1546 14.4804L99.3814 1.51622L101 0.612793L102.619 1.51622L125.845 14.4803L149.072 1.51622L150.691 0.612793L152.309 1.51622L175.536 14.4803L198.763 1.51622L202 7.2779L177.155 21.1455L175.536 22.0489L173.917 21.1455L150.691 8.18134L127.464 21.1455L125.845 22.0489L124.227 21.1455L101 8.18134L77.7733 21.1455L76.1546 22.0489L74.536 21.1455L51.3093 8.18133L28.0826 21.1455L26.464 22.0489L24.8453 21.1455L0 7.2779L3.23721 1.51622L26.464 14.4804L49.6907 1.51622L51.3093 0.612793ZM51.3093 40.8947L52.9279 41.7982L76.1546 54.7623L99.3814 41.7982L101 40.8947L102.619 41.7982L125.845 54.7623L149.072 41.7982L150.691 40.8947L152.309 41.7982L175.536 54.7623L198.763 41.7982L202 47.5599L177.155 61.4274L175.536 62.3308L173.917 61.4274L150.691 48.4633L127.464 61.4274L125.845 62.3308L124.227 61.4274L101 48.4633L77.7733 61.4274L76.1546 62.3308L74.536 61.4274L51.3093 48.4633L28.0826 61.4274L26.464 62.3308L24.8453 61.4274L0 47.5599L3.23721 41.7982L26.464 54.7623L49.6907 41.7982L51.3093 40.8947ZM52.9279 82.0801L51.3093 81.1767L49.6907 82.0801L26.464 95.0443L3.23721 82.0801L0 87.8418L24.8453 101.709L26.464 102.613L28.0826 101.709L51.3093 88.7452L74.536 101.709L76.1546 102.613L77.7733 101.709L101 88.7452L124.227 101.709L125.845 102.613L127.464 101.709L150.691 88.7452L173.917 101.709L175.536 102.613L177.155 101.709L202 87.8418L198.763 82.0801L175.536 95.0443L152.309 82.0801L150.691 81.1767L149.072 82.0801L125.845 95.0443L102.619 82.0801L101 81.1767L99.3814 82.0801L76.1546 95.0443L52.9279 82.0801Z" fill="#8CC3FF"/>
</svg>
