<svg width="16" height="16" viewBox="0 0 16 16" fill="none" xmlns="http://www.w3.org/2000/svg">
<path d="M2.77977 10.2L5.79977 13.22C7.03977 14.46 9.0531 14.46 10.2998 13.22L13.2264 10.2934C14.4664 9.05337 14.4664 7.04003 13.2264 5.79337L10.1998 2.78003C9.56643 2.1467 8.6931 1.8067 7.79977 1.85337L4.46643 2.01337C3.1331 2.07337 2.0731 3.13337 2.00643 4.46003L1.84643 7.79337C1.80643 8.69337 2.14643 9.5667 2.77977 10.2Z" stroke="#717171" stroke-linecap="round" stroke-linejoin="round"/>
<path d="M6.33317 7.99984C7.25365 7.99984 7.99984 7.25365 7.99984 6.33317C7.99984 5.4127 7.25365 4.6665 6.33317 4.6665C5.4127 4.6665 4.6665 5.4127 4.6665 6.33317C4.6665 7.25365 5.4127 7.99984 6.33317 7.99984Z" stroke="#717171" stroke-linecap="round"/>
</svg>
