<svg width="16" height="16" viewBox="0 0 16 16" fill="none" xmlns="http://www.w3.org/2000/svg">
<path d="M14.2 5.05345H10.48C10.22 5.05345 10.0133 4.84678 10.0133 4.58678C10.0133 4.32678 10.22 4.12012 10.48 4.12012H14.2C14.46 4.12012 14.6667 4.32678 14.6667 4.58678C14.6667 4.84678 14.46 5.05345 14.2 5.05345Z" fill="black"/>
<path d="M4.27999 5.05345H1.79999C1.53999 5.05345 1.33333 4.84678 1.33333 4.58678C1.33333 4.32678 1.53999 4.12012 1.79999 4.12012H4.27999C4.53999 4.12012 4.74666 4.32678 4.74666 4.58678C4.74666 4.84678 4.53333 5.05345 4.27999 5.05345Z" fill="black"/>
<path d="M6.76 7.21979C8.21435 7.21979 9.39333 6.04081 9.39333 4.58646C9.39333 3.13211 8.21435 1.95312 6.76 1.95312C5.30565 1.95312 4.12666 3.13211 4.12666 4.58646C4.12666 6.04081 5.30565 7.21979 6.76 7.21979Z" fill="black"/>
<path d="M14.2 11.8738H11.72C11.46 11.8738 11.2533 11.6671 11.2533 11.4071C11.2533 11.1471 11.46 10.9404 11.72 10.9404H14.2C14.46 10.9404 14.6667 11.1471 14.6667 11.4071C14.6667 11.6671 14.46 11.8738 14.2 11.8738Z" fill="black"/>
<path d="M5.51999 11.8738H1.79999C1.53999 11.8738 1.33333 11.6671 1.33333 11.4071C1.33333 11.1471 1.53999 10.9404 1.79999 10.9404H5.51999C5.77999 10.9404 5.98666 11.1471 5.98666 11.4071C5.98666 11.6671 5.77333 11.8738 5.51999 11.8738Z" fill="black"/>
<path d="M9.23999 14.0469C10.6943 14.0469 11.8733 12.868 11.8733 11.4136C11.8733 9.95926 10.6943 8.78027 9.23999 8.78027C7.78564 8.78027 6.60666 9.95926 6.60666 11.4136C6.60666 12.868 7.78564 14.0469 9.23999 14.0469Z" fill="black"/>
</svg>
