<svg width="28" height="28" viewBox="0 0 28 28" fill="none" xmlns="http://www.w3.org/2000/svg">
<path d="M25.667 6.99967V9.82301C25.667 11.6663 24.5003 12.833 22.657 12.833H18.667V4.67801C18.667 3.38301 19.7287 2.33301 21.0237 2.33301C22.2953 2.34467 23.462 2.85801 24.302 3.69801C25.142 4.54967 25.667 5.71634 25.667 6.99967Z" stroke="#0955FB" stroke-width="2" stroke-miterlimit="10" stroke-linecap="round" stroke-linejoin="round"/>
<path d="M2.33301 8.16634V24.4997C2.33301 25.468 3.42965 26.0163 4.19965 25.433L6.19467 23.9397C6.66134 23.5897 7.31468 23.6363 7.73468 24.0563L9.67132 26.0047C10.1263 26.4597 10.873 26.4597 11.328 26.0047L13.288 24.0447C13.6964 23.6363 14.3497 23.5897 14.8047 23.9397L16.7997 25.433C17.5697 26.0047 18.6663 25.4563 18.6663 24.4997V4.66634C18.6663 3.38301 19.7163 2.33301 20.9997 2.33301H8.16634H6.99968C3.49967 2.33301 2.33301 4.42134 2.33301 6.99968V8.16634Z" stroke="#0955FB" stroke-width="2" stroke-miterlimit="10" stroke-linecap="round" stroke-linejoin="round"/>
<path d="M7 10.5H14" stroke="#0955FB" stroke-width="2" stroke-linecap="round" stroke-linejoin="round"/>
<path d="M7.875 15.167H13.125" stroke="#0955FB" stroke-linecap="round" stroke-linejoin="round"/>
</svg>
