<svg width="20" height="21" viewBox="0 0 20 21" fill="none" xmlns="http://www.w3.org/2000/svg">
<path d="M18.3335 5.49984V7.5165C18.3335 8.83317 17.5001 9.6665 16.1835 9.6665H13.3335V3.8415C13.3335 2.9165 14.0918 2.1665 15.0168 2.1665C15.9252 2.17484 16.7585 2.5415 17.3585 3.1415C17.9585 3.74984 18.3335 4.58317 18.3335 5.49984Z" stroke="black" stroke-miterlimit="10" stroke-linecap="round" stroke-linejoin="round"/>
<path d="M1.6665 6.33317V17.9998C1.6665 18.6915 2.44982 19.0832 2.99982 18.6665L4.42484 17.5998C4.75817 17.3498 5.22484 17.3832 5.52484 17.6832L6.90815 19.0748C7.23315 19.3998 7.76652 19.3998 8.09152 19.0748L9.49152 17.6748C9.78318 17.3832 10.2498 17.3498 10.5748 17.5998L11.9999 18.6665C12.5499 19.0748 13.3332 18.6832 13.3332 17.9998V3.83317C13.3332 2.9165 14.0832 2.1665 14.9998 2.1665H5.83317H4.99984C2.49984 2.1665 1.6665 3.65817 1.6665 5.49984V6.33317Z" stroke="black" stroke-miterlimit="10" stroke-linecap="round" stroke-linejoin="round"/>
<path d="M5 8H10" stroke="black" stroke-linecap="round" stroke-linejoin="round"/>
<path d="M5.625 11.3335H9.375" stroke="black" stroke-linecap="round" stroke-linejoin="round"/>
</svg>
