<svg width="12" height="12" viewBox="0 0 12 12" fill="none" xmlns="http://www.w3.org/2000/svg">
<path d="M11 3V4.21C11 5 10.5 5.5 9.70999 5.5H8V2.005C8 1.45 8.45501 1 9.01001 1C9.55501 1.005 10.055 1.225 10.415 1.585C10.775 1.95 11 2.45 11 3Z" stroke="black" stroke-miterlimit="10" stroke-linecap="round" stroke-linejoin="round"/>
<path d="M1 3.5V10.5C1 10.915 1.46999 11.15 1.79999 10.9L2.655 10.26C2.855 10.11 3.135 10.13 3.315 10.31L4.14499 11.145C4.33999 11.34 4.66001 11.34 4.85501 11.145L5.69501 10.305C5.87001 10.13 6.15 10.11 6.345 10.26L7.20001 10.9C7.53001 11.145 8 10.91 8 10.5V2C8 1.45 8.45 1 9 1H3.5H3C1.5 1 1 1.895 1 3V3.5Z" stroke="black" stroke-miterlimit="10" stroke-linecap="round" stroke-linejoin="round"/>
<path d="M3 4.5H6" stroke="black" stroke-linecap="round" stroke-linejoin="round"/>
<path d="M3.375 6.5H5.625" stroke="black" stroke-linecap="round" stroke-linejoin="round"/>
</svg>
