<svg width="200" height="200" viewBox="0 0 200 200" fill="none" xmlns="http://www.w3.org/2000/svg">
<path d="M100 6C112.344 6 124.568 8.43138 135.972 13.1553C147.377 17.8793 157.739 24.8033 166.468 33.532C175.197 42.2607 182.121 52.6232 186.845 64.0278C191.569 75.4324 194 87.6558 194 100C194 112.344 191.569 124.568 186.845 135.972C182.121 147.377 175.197 157.739 166.468 166.468C157.739 175.197 147.377 182.121 135.972 186.845C124.568 191.569 112.344 194 100 194C87.6557 194 75.4323 191.569 64.0277 186.845C52.6231 182.121 42.2606 175.197 33.5319 166.468C24.8032 157.739 17.8792 147.377 13.1553 135.972C8.43137 124.568 5.99999 112.344 6 100C6.00001 87.6557 8.43139 75.4323 13.1553 64.0277C17.8793 52.6231 24.8033 42.2606 33.532 33.5319C42.2607 24.8032 52.6232 17.8792 64.0278 13.1553C75.4324 8.43137 87.6558 5.99999 100 6L100 6Z" stroke="#F5F5F5" stroke-width="12" stroke-linecap="round" stroke-linejoin="round"/>
<path d="M100 6C117.336 6 134.334 10.7939 149.115 19.8518C163.896 28.9097 175.884 41.8787 183.755 57.3249C191.625 72.7711 195.07 90.0929 193.71 107.375C192.35 124.657 186.237 141.227 176.048 155.252C165.858 169.277 151.988 180.211 135.972 186.845C119.956 193.479 102.417 195.555 85.2952 192.843C68.1729 190.131 52.1341 182.737 38.9519 171.478C25.7697 160.22 15.9577 145.535 10.6007 129.048" stroke="#08AA3B" stroke-width="12" stroke-linecap="round" stroke-linejoin="round"/>
<path d="M101 24C111.112 24 121.125 25.9917 130.467 29.8613C139.809 33.7309 148.297 39.4027 155.447 46.5528C162.597 53.7029 168.269 62.1913 172.139 71.5334C176.008 80.8755 178 90.8882 178 101C178 111.112 176.008 121.125 172.139 130.467C168.269 139.809 162.597 148.297 155.447 155.447C148.297 162.597 139.809 168.269 130.467 172.139C121.125 176.008 111.112 178 101 178C90.8882 178 80.8754 176.008 71.5333 172.139C62.1913 168.269 53.7029 162.597 46.5528 155.447C39.4026 148.297 33.7309 139.809 29.8613 130.467C25.9917 121.125 24 111.112 24 101C24 90.8882 25.9917 80.8754 29.8613 71.5333C33.7309 62.1913 39.4027 53.7029 46.5528 46.5527C53.7029 39.4026 62.1913 33.7309 71.5334 29.8613C80.8755 25.9917 90.8883 24 101 24L101 24Z" stroke="#F5F5F5" stroke-width="12" stroke-linecap="round" stroke-linejoin="round"/>
<path d="M101 24C111.112 24 121.125 25.9917 130.467 29.8613C139.809 33.7309 148.297 39.4027 155.447 46.5528C162.597 53.7029 168.269 62.1913 172.139 71.5334C176.008 80.8755 178 90.8882 178 101C178 111.112 176.008 121.125 172.139 130.467C168.269 139.809 162.597 148.297 155.447 155.447C148.297 162.597 139.809 168.269 130.467 172.139C121.125 176.008 111.112 178 101 178" stroke="#F5C200" stroke-width="12" stroke-linecap="round" stroke-linejoin="round"/>
<path d="M101 40C109.011 40 116.943 41.5778 124.344 44.6433C131.745 47.7089 138.469 52.2021 144.134 57.8665C149.798 63.5309 154.291 70.2555 157.357 77.6563C160.422 85.0572 162 92.9894 162 101C162 109.011 160.422 116.943 157.357 124.344C154.291 131.745 149.798 138.469 144.134 144.134C138.469 149.798 131.745 154.291 124.344 157.357C116.943 160.422 109.011 162 101 162C92.9893 162 85.0571 160.422 77.6563 157.357C70.2554 154.291 63.5308 149.798 57.8665 144.133C52.2021 138.469 47.7089 131.745 44.6433 124.344C41.5778 116.943 40 109.011 40 101C40 92.9893 41.5778 85.0571 44.6434 77.6563C47.7089 70.2554 52.2021 63.5308 57.8665 57.8665C63.5309 52.2021 70.2555 47.7089 77.6563 44.6433C85.0572 41.5778 92.9894 40 101 40L101 40Z" stroke="#F5F5F5" stroke-width="12" stroke-linecap="round" stroke-linejoin="round"/>
<path d="M101 40C110.626 40 120.116 42.2783 128.693 46.6486C137.271 51.0189 144.692 57.3571 150.35 65.1451C156.008 72.933 159.743 81.9496 161.249 91.4575C162.755 100.965 161.989 110.695 159.014 119.85" stroke="#F10606" stroke-width="12" stroke-linecap="round" stroke-linejoin="round"/>
<path d="M86.337 78.4062V77.2727H93.0913V78.4062H90.3683V86H89.0558V78.4062H86.337ZM96.2894 86.1321C95.6758 86.1321 95.1403 85.9915 94.6829 85.7102C94.2255 85.429 93.8704 85.0355 93.6175 84.5298C93.3647 84.0241 93.2383 83.4332 93.2383 82.7571C93.2383 82.0781 93.3647 81.4844 93.6175 80.9759C93.8704 80.4673 94.2255 80.0724 94.6829 79.7912C95.1403 79.5099 95.6758 79.3693 96.2894 79.3693C96.9031 79.3693 97.4386 79.5099 97.896 79.7912C98.3533 80.0724 98.7085 80.4673 98.9613 80.9759C99.2141 81.4844 99.3406 82.0781 99.3406 82.7571C99.3406 83.4332 99.2141 84.0241 98.9613 84.5298C98.7085 85.0355 98.3533 85.429 97.896 85.7102C97.4386 85.9915 96.9031 86.1321 96.2894 86.1321ZM96.2937 85.0625C96.6914 85.0625 97.021 84.9574 97.2823 84.7472C97.5437 84.5369 97.7369 84.2571 97.8619 83.9077C97.9897 83.5582 98.0536 83.1733 98.0536 82.7528C98.0536 82.3352 97.9897 81.9517 97.8619 81.6023C97.7369 81.25 97.5437 80.9673 97.2823 80.7543C97.021 80.5412 96.6914 80.4347 96.2937 80.4347C95.8931 80.4347 95.5607 80.5412 95.2965 80.7543C95.0352 80.9673 94.8406 81.25 94.7127 81.6023C94.5877 81.9517 94.5252 82.3352 94.5252 82.7528C94.5252 83.1733 94.5877 83.5582 94.7127 83.9077C94.8406 84.2571 95.0352 84.5369 95.2965 84.7472C95.5607 84.9574 95.8931 85.0625 96.2937 85.0625ZM103.818 79.4545V80.4773H100.243V79.4545H103.818ZM101.202 77.8864H102.476V84.0781C102.476 84.3253 102.513 84.5114 102.587 84.6364C102.661 84.7585 102.756 84.8423 102.872 84.8878C102.991 84.9304 103.121 84.9517 103.26 84.9517C103.362 84.9517 103.452 84.9446 103.528 84.9304C103.605 84.9162 103.665 84.9048 103.707 84.8963L103.938 85.9489C103.864 85.9773 103.759 86.0057 103.622 86.0341C103.486 86.0653 103.315 86.0824 103.111 86.0852C102.776 86.0909 102.463 86.0312 102.173 85.9062C101.884 85.7812 101.649 85.5881 101.47 85.3267C101.291 85.0653 101.202 84.7372 101.202 84.3423V77.8864ZM107.132 86.1449C106.718 86.1449 106.343 86.0682 106.007 85.9148C105.672 85.7585 105.407 85.5327 105.211 85.2372C105.017 84.9418 104.921 84.5795 104.921 84.1506C104.921 83.7812 104.992 83.4773 105.134 83.2386C105.276 83 105.468 82.8111 105.709 82.6719C105.951 82.5327 106.221 82.4276 106.519 82.3565C106.817 82.2855 107.121 82.2315 107.431 82.1946C107.823 82.1491 108.141 82.1122 108.385 82.0838C108.63 82.0526 108.807 82.0028 108.918 81.9347C109.029 81.8665 109.084 81.7557 109.084 81.6023V81.5724C109.084 81.2003 108.979 80.9119 108.769 80.7074C108.561 80.5028 108.252 80.4006 107.84 80.4006C107.411 80.4006 107.073 80.4957 106.826 80.6861C106.581 80.8736 106.412 81.0824 106.319 81.3125L105.121 81.0398C105.263 80.642 105.471 80.321 105.743 80.0767C106.019 79.8295 106.336 79.6506 106.694 79.5398C107.051 79.4261 107.428 79.3693 107.823 79.3693C108.084 79.3693 108.361 79.4006 108.654 79.4631C108.949 79.5227 109.225 79.6335 109.48 79.7955C109.739 79.9574 109.951 80.1889 110.115 80.4901C110.28 80.7884 110.363 81.1761 110.363 81.6534V86H109.118V85.1051H109.067C108.985 85.2699 108.861 85.4318 108.696 85.5909C108.532 85.75 108.32 85.8821 108.061 85.9872C107.803 86.0923 107.493 86.1449 107.132 86.1449ZM107.409 85.1222C107.762 85.1222 108.063 85.0526 108.313 84.9134C108.566 84.7741 108.757 84.5923 108.888 84.3679C109.022 84.1406 109.088 83.8977 109.088 83.6392V82.7955C109.043 82.8409 108.955 82.8835 108.824 82.9233C108.696 82.9602 108.55 82.9929 108.385 83.0213C108.221 83.0469 108.06 83.071 107.904 83.0938C107.748 83.1136 107.617 83.1307 107.512 83.1449C107.265 83.1761 107.039 83.2287 106.834 83.3026C106.632 83.3764 106.471 83.483 106.348 83.6222C106.229 83.7585 106.169 83.9403 106.169 84.1676C106.169 84.483 106.286 84.7216 106.519 84.8835C106.752 85.0426 107.049 85.1222 107.409 85.1222ZM113.334 77.2727V86H112.06V77.2727H113.334Z" fill="#717171"/>
<path d="M71.7582 117V114.716L77.8178 108.776C78.3974 108.19 78.8803 107.67 79.2667 107.216C79.6531 106.761 79.9428 106.321 80.136 105.895C80.3292 105.469 80.4258 105.014 80.4258 104.531C80.4258 103.98 80.3008 103.509 80.0508 103.116C79.8008 102.719 79.457 102.412 79.0195 102.196C78.582 101.98 78.0849 101.872 77.5281 101.872C76.9542 101.872 76.4513 101.991 76.0195 102.23C75.5877 102.463 75.2525 102.795 75.0138 103.227C74.7809 103.659 74.6644 104.173 74.6644 104.77H71.6559C71.6559 103.662 71.9087 102.699 72.4144 101.881C72.9201 101.062 73.6161 100.429 74.5025 99.9801C75.3945 99.5312 76.4173 99.3068 77.5707 99.3068C78.7411 99.3068 79.7695 99.5256 80.6559 99.9631C81.5423 100.401 82.2298 101 82.7184 101.761C83.2127 102.523 83.4599 103.392 83.4599 104.369C83.4599 105.023 83.3349 105.665 83.0849 106.295C82.8349 106.926 82.3945 107.625 81.7638 108.392C81.1388 109.159 80.261 110.088 79.1303 111.179L76.1218 114.239V114.358H83.7241V117H71.7582ZM93.1161 117.332C91.7127 117.332 90.5082 116.977 89.5025 116.267C88.5025 115.551 87.7326 114.52 87.1928 113.173C86.6587 111.821 86.3917 110.193 86.3917 108.29C86.3974 106.386 86.6673 104.767 87.2013 103.432C87.7411 102.091 88.511 101.068 89.511 100.364C90.5167 99.6591 91.7184 99.3068 93.1161 99.3068C94.5138 99.3068 95.7156 99.6591 96.7212 100.364C97.7269 101.068 98.4968 102.091 99.0309 103.432C99.5707 104.773 99.8406 106.392 99.8406 108.29C99.8406 110.199 99.5707 111.83 99.0309 113.182C98.4968 114.528 97.7269 115.557 96.7212 116.267C95.7212 116.977 94.5195 117.332 93.1161 117.332ZM93.1161 114.665C94.207 114.665 95.0678 114.128 95.6985 113.054C96.3349 111.974 96.6531 110.386 96.6531 108.29C96.6531 106.903 96.5082 105.739 96.2184 104.795C95.9286 103.852 95.5195 103.142 94.9911 102.665C94.4627 102.182 93.8377 101.94 93.1161 101.94C92.0309 101.94 91.1729 102.48 90.5423 103.56C89.9116 104.634 89.5934 106.21 89.5877 108.29C89.582 109.682 89.7212 110.852 90.0053 111.801C90.2951 112.75 90.7042 113.466 91.2326 113.949C91.761 114.426 92.3888 114.665 93.1161 114.665ZM109.124 117.332C107.721 117.332 106.516 116.977 105.51 116.267C104.51 115.551 103.74 114.52 103.201 113.173C102.667 111.821 102.4 110.193 102.4 108.29C102.405 106.386 102.675 104.767 103.209 103.432C103.749 102.091 104.519 101.068 105.519 100.364C106.525 99.6591 107.726 99.3068 109.124 99.3068C110.522 99.3068 111.723 99.6591 112.729 100.364C113.735 101.068 114.505 102.091 115.039 103.432C115.578 104.773 115.848 106.392 115.848 108.29C115.848 110.199 115.578 111.83 115.039 113.182C114.505 114.528 113.735 115.557 112.729 116.267C111.729 116.977 110.527 117.332 109.124 117.332ZM109.124 114.665C110.215 114.665 111.076 114.128 111.706 113.054C112.343 111.974 112.661 110.386 112.661 108.29C112.661 106.903 112.516 105.739 112.226 104.795C111.936 103.852 111.527 103.142 110.999 102.665C110.471 102.182 109.846 101.94 109.124 101.94C108.039 101.94 107.181 102.48 106.55 103.56C105.919 104.634 105.601 106.21 105.596 108.29C105.59 109.682 105.729 110.852 106.013 111.801C106.303 112.75 106.712 113.466 107.24 113.949C107.769 114.426 108.397 114.665 109.124 114.665ZM121.527 112.892L121.518 109.168H122.012L126.717 103.909H130.322L124.535 110.352H123.896L121.527 112.892ZM118.714 117V99.5455H121.799V117H118.714ZM126.93 117L122.669 111.043L124.748 108.869L130.62 117H126.93Z" fill="black"/>
</svg>
