<svg width="20" height="21" viewBox="0 0 20 21" fill="none" xmlns="http://www.w3.org/2000/svg">
<path d="M9.99984 2.1665C5.40817 2.1665 1.6665 5.90817 1.6665 10.4998C1.6665 15.0915 5.40817 18.8332 9.99984 18.8332C14.5915 18.8332 18.3332 15.0915 18.3332 10.4998C18.3332 5.90817 14.5915 2.1665 9.99984 2.1665ZM9.37484 7.1665C9.37484 6.82484 9.65817 6.5415 9.99984 6.5415C10.3415 6.5415 10.6248 6.82484 10.6248 7.1665V11.3332C10.6248 11.6748 10.3415 11.9582 9.99984 11.9582C9.65817 11.9582 9.37484 11.6748 9.37484 11.3332V7.1665ZM10.7665 14.1498C10.7248 14.2582 10.6665 14.3415 10.5915 14.4248C10.5082 14.4998 10.4165 14.5582 10.3165 14.5998C10.2165 14.6415 10.1082 14.6665 9.99984 14.6665C9.8915 14.6665 9.78317 14.6415 9.68317 14.5998C9.58317 14.5582 9.4915 14.4998 9.40817 14.4248C9.33317 14.3415 9.27484 14.2582 9.23317 14.1498C9.1915 14.0498 9.1665 13.9415 9.1665 13.8332C9.1665 13.7248 9.1915 13.6165 9.23317 13.5165C9.27484 13.4165 9.33317 13.3248 9.40817 13.2415C9.4915 13.1665 9.58317 13.1082 9.68317 13.0665C9.88317 12.9832 10.1165 12.9832 10.3165 13.0665C10.4165 13.1082 10.5082 13.1665 10.5915 13.2415C10.6665 13.3248 10.7248 13.4165 10.7665 13.5165C10.8082 13.6165 10.8332 13.7248 10.8332 13.8332C10.8332 13.9415 10.8082 14.0498 10.7665 14.1498Z" fill="#F5C200"/>
</svg>
