<svg width="32" height="33" viewBox="0 0 32 33" fill="none" xmlns="http://www.w3.org/2000/svg">
<path d="M12.2134 14.9934C12.0801 14.9801 11.9201 14.9801 11.7734 14.9934C8.60008 14.8867 6.08008 12.2867 6.08008 9.08675C6.08008 5.82008 8.72008 3.16675 12.0001 3.16675C15.2667 3.16675 17.9201 5.82008 17.9201 9.08675C17.9067 12.2867 15.3867 14.8867 12.2134 14.9934Z" stroke="#0955FB" stroke-width="1.5" stroke-linecap="round" stroke-linejoin="round"/>
<path d="M21.8804 5.83325C24.467 5.83325 26.547 7.92659 26.547 10.4999C26.547 13.0199 24.547 15.0733 22.0537 15.1666C21.947 15.1533 21.827 15.1533 21.707 15.1666" stroke="#0955FB" stroke-width="1.5" stroke-linecap="round" stroke-linejoin="round"/>
<path d="M5.54695 19.9133C2.32029 22.0733 2.32029 25.5933 5.54695 27.7399C9.21362 30.1933 15.227 30.1933 18.8936 27.7399C22.1203 25.5799 22.1203 22.0599 18.8936 19.9133C15.2403 17.4733 9.22695 17.4733 5.54695 19.9133Z" stroke="#0955FB" stroke-width="1.5" stroke-linecap="round" stroke-linejoin="round"/>
<path d="M24.4531 27.1667C25.4131 26.9667 26.3198 26.5801 27.0665 26.0067C29.1465 24.4467 29.1465 21.8734 27.0665 20.3134C26.3331 19.7534 25.4398 19.3801 24.4931 19.1667" stroke="#0955FB" stroke-width="1.5" stroke-linecap="round" stroke-linejoin="round"/>
</svg>
