<svg width="32" height="33" viewBox="0 0 32 33" fill="none" xmlns="http://www.w3.org/2000/svg">
<path d="M12.2134 14.9932C12.0801 14.9798 11.9201 14.9798 11.7734 14.9932C8.60008 14.8865 6.08008 12.2865 6.08008 9.0865C6.08008 5.81984 8.72008 3.1665 12.0001 3.1665C15.2667 3.1665 17.9201 5.81984 17.9201 9.0865C17.9067 12.2865 15.3867 14.8865 12.2134 14.9932Z" stroke="#B39200" stroke-width="1.5" stroke-linecap="round" stroke-linejoin="round"/>
<path d="M21.8804 5.8335C24.467 5.8335 26.547 7.92683 26.547 10.5002C26.547 13.0202 24.547 15.0735 22.0537 15.1668C21.947 15.1535 21.827 15.1535 21.707 15.1668" stroke="#B39200" stroke-width="1.5" stroke-linecap="round" stroke-linejoin="round"/>
<path d="M5.54695 19.9135C2.32029 22.0735 2.32029 25.5935 5.54695 27.7402C9.21362 30.1935 15.227 30.1935 18.8936 27.7402C22.1203 25.5802 22.1203 22.0602 18.8936 19.9135C15.2403 17.4735 9.22695 17.4735 5.54695 19.9135Z" stroke="#B39200" stroke-width="1.5" stroke-linecap="round" stroke-linejoin="round"/>
<path d="M24.4531 27.1665C25.4131 26.9665 26.3198 26.5798 27.0665 26.0065C29.1465 24.4465 29.1465 21.8732 27.0665 20.3132C26.3331 19.7532 25.4398 19.3798 24.4931 19.1665" stroke="#B39200" stroke-width="1.5" stroke-linecap="round" stroke-linejoin="round"/>
</svg>
