<svg width="16" height="16" viewBox="0 0 16 16" fill="none" xmlns="http://www.w3.org/2000/svg">
<path d="M14.6665 4.00016V5.6135C14.6665 6.66683 13.9998 7.3335 12.9465 7.3335H10.6665V2.6735C10.6665 1.9335 11.2732 1.3335 12.0132 1.3335C12.7399 1.34016 13.4065 1.6335 13.8865 2.1135C14.3665 2.60016 14.6665 3.26683 14.6665 4.00016Z" stroke="#717171" stroke-miterlimit="10" stroke-linecap="round" stroke-linejoin="round"/>
<path d="M1.3335 4.66683V14.0002C1.3335 14.5535 1.96015 14.8668 2.40015 14.5335L3.54016 13.6802C3.80683 13.4802 4.18017 13.5068 4.42017 13.7468L5.52681 14.8602C5.78681 15.1202 6.21351 15.1202 6.47351 14.8602L7.59351 13.7402C7.82684 13.5068 8.20016 13.4802 8.46016 13.6802L9.60018 14.5335C10.0402 14.8602 10.6668 14.5468 10.6668 14.0002V2.66683C10.6668 1.9335 11.2668 1.3335 12.0002 1.3335H4.66683H4.00016C2.00016 1.3335 1.3335 2.52683 1.3335 4.00016V4.66683Z" stroke="#717171" stroke-miterlimit="10" stroke-linecap="round" stroke-linejoin="round"/>
<path d="M4 6H8" stroke="#717171" stroke-linecap="round" stroke-linejoin="round"/>
<path d="M4.5 8.6665H7.5" stroke="#717171" stroke-linecap="round" stroke-linejoin="round"/>
</svg>
