<svg width="22" height="19" viewBox="0 0 22 19" fill="none" xmlns="http://www.w3.org/2000/svg">
<path d="M21.833 6.5625C21.833 13.125 12.1027 18.4369 11.6883 18.6562C11.5791 18.715 11.457 18.7458 11.333 18.7458C11.209 18.7458 11.0869 18.715 10.9777 18.6562C10.5633 18.4369 0.833008 13.125 0.833008 6.5625C0.834745 5.02146 1.44769 3.54404 2.53737 2.45436C3.62705 1.36468 5.10447 0.751737 6.64551 0.75C8.58144 0.75 10.2764 1.5825 11.333 2.98969C12.3896 1.5825 14.0846 0.75 16.0205 0.75C17.5615 0.751737 19.039 1.36468 20.1286 2.45436C21.2183 3.54404 21.8313 5.02146 21.833 6.5625Z" fill="#FF0033"/>
</svg>
