<svg width="14" height="15" viewBox="0 0 14 15" fill="none" xmlns="http://www.w3.org/2000/svg">
<path d="M11.1866 5.85301V5.01967C11.1866 3.21967 10.7533 0.833008 6.99992 0.833008C3.24659 0.833008 2.81325 3.21967 2.81325 5.01967V5.85301C0.946585 6.08634 0.333252 7.03301 0.333252 9.35967V10.5997C0.333252 13.333 1.16659 14.1663 3.89992 14.1663H10.0999C12.8333 14.1663 13.6666 13.333 13.6666 10.5997V9.35967C13.6666 7.03301 13.0533 6.08634 11.1866 5.85301ZM6.99992 11.993C5.88659 11.993 4.98659 11.0863 4.98659 9.97967C4.98659 8.86634 5.89325 7.96634 6.99992 7.96634C8.10659 7.96634 9.01325 8.87301 9.01325 9.97967C9.01325 11.093 8.11325 11.993 6.99992 11.993ZM3.89992 5.79301C3.84659 5.79301 3.79992 5.79301 3.74659 5.79301V5.01967C3.74659 3.06634 4.29992 1.76634 6.99992 1.76634C9.69992 1.76634 10.2533 3.06634 10.2533 5.01967V5.79967C10.1999 5.79967 10.1533 5.79967 10.0999 5.79967H3.89992V5.79301Z" fill="#717171"/>
</svg>
